<?xml version="1.0" encoding="UTF-8"?>
<svg version="1.1" xmlns="http://www.w3.org/2000/svg" width="198" height="198">
<path d="M0 0 C65.34 0 130.68 0 198 0 C198 65.34 198 130.68 198 198 C132.66 198 67.32 198 0 198 C0 132.66 0 67.32 0 0 Z " fill="#FAFCFC" transform="translate(0,0)"/>
<path d="M0 0 C0.84046875 -0.03738281 1.6809375 -0.07476563 2.546875 -0.11328125 C9.94742878 1.05241291 15.18933545 7.98552622 20.1875 13.0625 C21.34668945 14.22265625 21.34668945 14.22265625 22.52929688 15.40625 C26.69937521 19.60805336 30.6799044 23.90764054 34.54174805 28.39257812 C38.02766959 32.31044107 41.84644572 35.90800073 45.61523438 39.55078125 C46.21529297 40.13988281 46.81535156 40.72898438 47.43359375 41.3359375 C47.97556396 41.86106934 48.51753418 42.38620117 49.07592773 42.92724609 C50.25 44.3125 50.25 44.3125 50.25 46.3125 C51.735 46.8075 51.735 46.8075 53.25 47.3125 C55.0390625 49.125 55.0390625 49.125 56.875 51.3125 C57.48601562 52.034375 58.09703125 52.75625 58.7265625 53.5 C59.48066406 54.3971875 59.48066406 54.3971875 60.25 55.3125 C60.58 55.6425 60.91 55.9725 61.25 56.3125 C61.3427833 57.69410115 61.36747043 59.08038038 61.36352539 60.46508789 C61.36341209 61.78634422 61.36341209 61.78634422 61.36329651 63.1342926 C61.35813522 64.09157761 61.35297394 65.04886261 61.34765625 66.03515625 C61.3462413 67.01036728 61.34482635 67.98557831 61.34336853 68.99034119 C61.33775133 72.11859143 61.32519593 75.24677123 61.3125 78.375 C61.30748722 80.49023334 61.30292393 82.60546781 61.29882812 84.72070312 C61.28777631 89.91799296 61.27102146 95.11524145 61.25 100.3125 C57.77711735 98.76249764 56.03172874 96.9462785 53.66796875 93.95703125 C51.69167854 91.66497016 49.43652987 89.8086151 47.09375 87.90234375 C45.26088765 86.32188829 43.5558369 84.65090185 41.85595703 82.92944336 C39.7892087 80.84855643 37.69631475 78.79494956 35.60546875 76.73828125 C33.88268678 75.03398124 32.16003392 73.32955072 30.4375 71.625 C29.55384766 70.75810547 28.67019531 69.89121094 27.75976562 68.99804688 C26.92509766 68.16982422 26.09042969 67.34160156 25.23046875 66.48828125 C24.46629639 65.73458252 23.70212402 64.98088379 22.91479492 64.2043457 C21.25 62.3125 21.25 62.3125 21.25 60.3125 C17.55516081 59.13015146 14.10646386 59.0320299 10.25 59.3125 C8.04367698 60.90149186 7.33945823 61.79444882 6.87361908 64.49211597 C6.87290657 65.34435592 6.87219406 66.19659586 6.87145996 67.07466125 C6.86325729 68.05457031 6.85505463 69.03447937 6.84660339 70.04408264 C6.85275162 71.11790695 6.85889984 72.19173126 6.86523438 73.2980957 C6.8598616 74.43006378 6.85448883 75.56203186 6.84895325 76.728302 C6.83915743 79.1902578 6.83623651 81.6522482 6.83930969 84.11422157 C6.84377518 88.01025064 6.82982212 91.90582245 6.81091309 95.80180359 C6.7730402 104.07618647 6.76026192 112.35054376 6.75 120.625 C6.73811222 130.2016949 6.71641079 139.77816158 6.66999817 149.35475731 C6.656408 153.19364947 6.66060321 157.03226318 6.66540527 160.87117004 C6.65606456 163.22702388 6.64589572 165.58287464 6.63476562 167.9387207 C6.64091385 169.00647232 6.64706207 170.07422394 6.65339661 171.17433167 C6.59364098 178.37449918 5.53225303 182.69625872 0.6875 188.25 C-2.15986801 190.46382863 -4.25549922 190.57186464 -7.8125 190.3125 C-14.91384255 189.13600892 -18.21100483 186.04390169 -22.73046875 180.6875 C-25.01119531 178.00533027 -27.37293384 175.40959808 -29.75 172.8125 C-34.73575729 167.34014478 -39.63427147 161.80721106 -44.42578125 156.1640625 C-44.92094238 155.58245361 -45.41610352 155.00084473 -45.92626953 154.40161133 C-46.88156177 153.27856421 -47.8346549 152.15363946 -48.78466797 151.02612305 C-49.48487061 150.20301636 -49.48487061 150.20301636 -50.19921875 149.36328125 C-50.7111377 148.74042236 -51.22305664 148.11756348 -51.75048828 147.47583008 C-53.81837528 145.14216938 -53.81837528 145.14216938 -56.79248047 142.7956543 C-62.12279402 138.19428392 -65.84055278 134.16088085 -66.71557617 126.95581055 C-67.07415898 120.78988392 -66.80105376 114.66260837 -66.5 108.5 C-66.4396985 106.34324861 -66.38496479 104.186334 -66.3359375 102.02929688 C-66.20478846 96.78675557 -66.0049693 91.55040391 -65.75 86.3125 C-64.62835006 87.2690422 -63.50738888 88.22639208 -62.38671875 89.18408203 C-61.76240967 89.71711945 -61.13810059 90.25015686 -60.49487305 90.79934692 C-54.98305139 95.57919604 -50.09847061 100.95571321 -45.359375 106.48828125 C-43.90463749 108.13721916 -42.39946794 109.66739869 -40.8125 111.1875 C-38.75 113.3125 -38.75 113.3125 -38.75 115.3125 C-37.265 115.8075 -37.265 115.8075 -35.75 116.3125 C-34.13671875 117.984375 -34.13671875 117.984375 -32.4375 120.0625 C-26.82903293 126.70225005 -26.82903293 126.70225005 -19.0625 130.3125 C-15.83378284 130.61874073 -15.83378284 130.61874073 -13.875 129.0625 C-11.84248655 125.9008124 -11.62408717 123.20328296 -11.61869812 119.55033875 C-11.61468994 118.57042969 -11.61068176 117.59052063 -11.60655212 116.58091736 C-11.6073452 114.97018089 -11.6073452 114.97018089 -11.6081543 113.3269043 C-11.60467987 112.19493622 -11.60120544 111.06296814 -11.59762573 109.896698 C-11.59026582 107.43472982 -11.5849217 104.97275499 -11.58133507 102.51077843 C-11.5741786 98.61486276 -11.55851828 94.71907369 -11.53999329 90.82319641 C-11.53365601 89.48862367 -11.52733038 88.15405088 -11.52101612 86.81947803 C-11.51785031 86.15114087 -11.5146845 85.4828037 -11.51142275 84.79421389 C-11.46937279 75.72553699 -11.43637651 66.65690267 -11.42407227 57.58813477 C-11.41478879 50.81535307 -11.38469023 44.04289909 -11.34275246 37.27024269 C-11.33042845 34.68788874 -11.32532373 32.10548993 -11.32755089 29.52310753 C-11.32989997 25.91048564 -11.30776533 22.2987778 -11.2800293 18.6862793 C-11.28993141 17.08465187 -11.28993141 17.08465187 -11.30003357 15.45066833 C-11.22433679 9.44983369 -10.79798828 5.86316131 -6.75 1.3125 C-4.34933502 0.11216751 -2.6790818 0.07712508 0 0 Z " fill="#02499C" transform="translate(66.75,4.6875)"/>
<path d="M0 0 C5.97853057 2.21146771 9.51044888 6.32941543 13.6875 10.9375 C14.38431885 11.69369629 15.0811377 12.44989258 15.79907227 13.22900391 C17.20618266 14.75764851 18.60979578 16.28952027 20.00976562 17.82470703 C21.80968153 19.79198508 23.62587508 21.74173717 25.453125 23.68359375 C32.87089834 31.61269502 32.87089834 31.61269502 34 35 C35.485 35.495 35.485 35.495 37 36 C38.60546875 37.55859375 38.60546875 37.55859375 40.1875 39.4375 C40.71730469 40.05496094 41.24710937 40.67242187 41.79296875 41.30859375 C43 43 43 43 43 45 C43.66 45 44.32 45 45 45 C48.27369962 47.52209828 50.64832706 50.36962897 51.52850342 54.45016479 C51.69247228 57.30631087 51.67520818 60.1053804 51.5859375 62.96484375 C51.57744781 63.99815323 51.56895813 65.03146271 51.56021118 66.09608459 C51.52677958 69.37764307 51.4515161 72.65669162 51.375 75.9375 C51.34488731 78.16988624 51.3175138 80.40231122 51.29296875 82.63476562 C51.22702251 88.0906917 51.12677748 93.54516651 51 99 C44.43577244 93.58379129 44.43577244 93.58379129 41.75 90.375 C38.89307588 87.02506685 35.97069159 83.74975656 33 80.5 C28.35209847 75.40139287 23.74887798 70.26945071 19.30859375 64.98828125 C18.77363281 64.35277344 18.23867187 63.71726563 17.6875 63.0625 C16.98173828 62.21365234 16.98173828 62.21365234 16.26171875 61.34765625 C14.09101218 59.0290997 12.79576244 58.98143295 9.5625 58.6875 C6.0173709 58.61118562 6.0173709 58.61118562 4.30058193 60.72038746 C2.81215434 63.32924901 2.626088 64.80234342 2.62818909 67.78630066 C2.62143158 68.74642059 2.61467407 69.70654053 2.60771179 70.695755 C2.61543106 71.74256943 2.62315033 72.78938385 2.63110352 73.86791992 C2.62733704 74.97570801 2.62357056 76.08349609 2.61968994 77.22485352 C2.61325193 79.63168173 2.61359266 82.03853537 2.61987495 84.445364 C2.62897263 88.25828935 2.61877459 92.0707216 2.60325623 95.88362122 C2.56818846 105.35759062 2.56082497 114.83151523 2.56335449 124.30554199 C2.56521906 132.30414467 2.5512748 140.30237854 2.51487541 148.30092812 C2.5040645 152.05058107 2.51617504 155.79972563 2.52870178 159.54936218 C2.51979378 161.86128232 2.50971815 164.17319836 2.49829102 166.48510742 C2.51290627 168.04014732 2.51290627 168.04014732 2.52781677 169.62660217 C2.45546998 176.98581533 1.11414482 183.3297579 -3.75 189.0625 C-8.5982294 191.08259558 -12.63371929 190.47048663 -17.42578125 188.8203125 C-21.24084116 187.09698772 -23.6108255 184.65431325 -26.375 181.5 C-27.08305786 180.70106323 -27.08305786 180.70106323 -27.80541992 179.88598633 C-31.49519154 175.68873896 -34.98771973 171.33574547 -38.48828125 166.98046875 C-42.10585958 162.68775916 -45.9712872 158.64323909 -49.8293457 154.56738281 C-54.10179058 150.02947127 -58.09168314 145.37291245 -61.9375 140.46484375 C-64.00722914 137.82847604 -64.00722914 137.82847604 -67.09228516 135.51147461 C-69.81019698 132.79317509 -70.45560236 130.91917355 -70.68115234 127.09619141 C-70.68020947 125.18105233 -70.64672095 123.26573698 -70.5859375 121.3515625 C-70.57744781 120.33903412 -70.56895813 119.32650574 -70.56021118 118.28329468 C-70.52673745 115.06276136 -70.45146656 111.844771 -70.375 108.625 C-70.34489273 106.43623418 -70.31751827 104.24742896 -70.29296875 102.05859375 C-70.22696667 96.70486776 -70.12667949 91.35261557 -70 86 C-66.68110468 87.10629844 -65.9804266 87.9172163 -63.8046875 90.5390625 C-60.05283544 94.96053645 -56.11764259 99.17125659 -52.125 103.375 C-47.67445916 108.07844151 -43.24555408 112.79048836 -38.9375 117.625 C-38.25816406 118.37910156 -37.57882813 119.13320312 -36.87890625 119.91015625 C-35.62574075 121.30400977 -34.38348735 122.70775131 -33.15234375 124.12109375 C-30.16458443 127.38464624 -28.63048611 128.83187037 -24.25 130 C-20.98682384 130.17129004 -20.98682384 130.17129004 -18 129 C-16.02597501 126.03914333 -15.74844088 123.62002801 -15.74171448 120.1108551 C-15.73488647 119.12812622 -15.72805847 118.14539734 -15.72102356 117.13288879 C-15.72357651 116.06108871 -15.72612946 114.98928864 -15.72875977 113.88500977 C-15.72091965 112.18442917 -15.72091965 112.18442917 -15.71292114 110.44949341 C-15.70267711 107.98700407 -15.69690004 105.52449305 -15.69503975 103.06198311 C-15.6913826 99.16621367 -15.67467394 95.27070027 -15.65428162 91.37498474 C-15.60512884 81.69901393 -15.57421288 72.02299507 -15.55297852 62.34692383 C-15.53501258 54.17247728 -15.50564171 45.9982636 -15.45893669 37.82392693 C-15.44727304 35.24074163 -15.44135622 32.65752384 -15.44125557 30.07431221 C-15.44106389 26.46414284 -15.42282382 22.85447621 -15.40063477 19.24438477 C-15.40521194 18.17460892 -15.40978912 17.10483307 -15.414505 16.00263977 C-15.35230485 9.64874416 -14.75127679 5.95507507 -10.3125 1.1875 C-6.94975047 -0.53931732 -3.65704305 -0.66373379 0 0 Z " fill="#028CCF" transform="translate(147,4)"/>
<path d="M0 0 C6.79457401 1.17147828 10.42891286 6.3719707 14.70703125 11.38671875 C16.80670782 13.83705413 18.96006376 16.23217573 21.125 18.625 C27.6664289 25.8736104 27.6664289 25.8736104 30.6889801 29.50296021 C32.57751735 31.68562071 32.57751735 31.68562071 34.90464783 33.4382019 C39.17149843 37.15520555 41.73446579 40.52557427 42.415802 46.190979 C42.78462815 51.92193326 42.63943195 57.64581911 42.50390625 63.3828125 C42.49065355 65.25900873 42.48148435 67.13523835 42.47644043 69.01147461 C42.42948659 75.92482787 42.30383372 82.83746613 42.1875 89.75 C42.001875 105.21875 41.81625 120.6875 41.625 136.625 C-1.935 136.625 -45.495 136.625 -90.375 136.625 C-87.375 130.625 -87.375 130.625 -84.375 129.625 C-82.06904636 119.41291959 -82.28044936 109.20519075 -82.375 98.8125 C-82.40165595 95.84765986 -82.42158565 92.88288376 -82.4375 89.91796875 C-82.44910156 88.6136792 -82.46070312 87.30938965 -82.47265625 85.96557617 C-82.39411485 83.27887126 -82.18983376 81.16133047 -81.375 78.625 C-76.88122805 78.46159011 -74.52715881 78.61243722 -71.0859375 81.63671875 C-68.76573894 84.23996559 -66.55664718 86.90487004 -64.375 89.625 C-63.2156191 90.9646734 -62.04951983 92.29857923 -60.875 93.625 C-60.31554687 94.26824219 -59.75609375 94.91148437 -59.1796875 95.57421875 C-57.14541859 97.88588797 -55.0727769 100.1603143 -53 102.4375 C-49.79847567 105.97660002 -46.74353937 109.59603106 -43.75 113.3125 C-40.62265707 117.18340698 -37.38722339 120.7573298 -33.79296875 124.1953125 C-32.375 125.625 -32.375 125.625 -30.8125 127.9375 C-28.28522203 130.90430457 -25.12049923 131.36830894 -21.3828125 131.91796875 C-17.50592102 132.18861966 -15.63725083 131.81883757 -12.5 129.5 C-7.85300675 123.21289149 -8.09000438 116.97978785 -8.11962891 109.46655273 C-8.11600845 108.35204742 -8.112388 107.23754211 -8.10865784 106.08926392 C-8.10177607 103.67482254 -8.09925611 101.26036565 -8.10060501 98.84591484 C-8.10157084 95.02559259 -8.08862207 91.20555121 -8.07162476 87.38526917 C-8.02536087 76.52549795 -8.00065154 65.66577197 -7.99414062 54.8059082 C-7.9899877 48.15938549 -7.96492505 41.51312268 -7.92881393 34.86668587 C-7.91900204 32.33373851 -7.91669151 29.80075067 -7.92198563 27.26778984 C-7.92903616 23.72955538 -7.91181536 20.19220371 -7.88916016 16.65405273 C-7.90141884 15.08215431 -7.90141884 15.08215431 -7.91392517 13.47850037 C-7.86345983 9.056547 -7.79878452 6.35804987 -5.55380249 2.4747467 C-3.375 0.625 -3.375 0.625 0 0 Z " fill="#FAFDFD" transform="translate(156.375,61.375)"/>
<path d="M0 0 C0.94601074 0.77545166 1.89202148 1.55090332 2.86669922 2.34985352 C3.66489578 3.00414085 3.66489578 3.00414085 4.47921753 3.67164612 C6.63948293 5.55856748 8.35501903 7.68511246 10.125 9.9375 C13.66768688 14.36884065 17.29093067 18.70704683 21 23 C24.62480241 27.2023965 28.19569359 31.43551669 31.6875 35.75 C35.2295062 40.11975765 38.93147886 44.29919855 42.76171875 48.41796875 C43.50035156 49.27003906 44.23898438 50.12210938 45 51 C45.49845932 51.53744339 45.99691864 52.07488678 46.51048279 52.62861633 C51.26209498 58.20332237 51.82163288 62.44759648 51.5859375 69.625 C51.57744781 70.61250244 51.56895813 71.60000488 51.56021118 72.61743164 C51.52684373 75.74610307 51.45159528 78.87211857 51.375 82 C51.3448789 84.13147298 51.31750687 86.26298669 51.29296875 88.39453125 C51.22710831 93.59724776 51.12693064 98.7984341 51 104 C49.88058692 103.05285419 48.76292412 102.10363951 47.64599609 101.15356445 C47.02340912 100.62519485 46.40082214 100.09682526 45.7593689 99.55244446 C43.52427649 97.5802277 41.57493066 95.4400061 39.625 93.1875 C36.63935478 89.80072218 33.59209732 86.54285603 30.375 83.375 C26.96643708 80.01377823 23.79489053 76.53044841 20.6796875 72.8984375 C18.48078264 70.41316363 16.12439776 68.1131978 13.7578125 65.7890625 C11.30634835 63.29401677 9.03907951 60.65569835 6.7734375 57.9921875 C5.00328577 55.86462123 5.00328577 55.86462123 2.41967773 54.10327148 C-1.23499969 49.41609514 -0.62512552 45.13414185 -0.48828125 39.35546875 C-0.48120651 38.2305452 -0.47413177 37.10562164 -0.46684265 35.9466095 C-0.43889144 32.35955851 -0.37614717 28.77407788 -0.3125 25.1875 C-0.28741827 22.75327778 -0.26460489 20.31903105 -0.24414062 17.88476562 C-0.18906226 11.9226428 -0.10542705 5.9614336 0 0 Z " fill="#011777" transform="translate(0,5)"/>
<path d="M0 0 C3.71286649 1.71322199 5.52431786 3.57216654 8.0625 6.8125 C8.84753906 7.79992187 9.63257813 8.78734375 10.44140625 9.8046875 C10.85664551 10.32772461 11.27188477 10.85076172 11.69970703 11.38964844 C13.90679366 14.12302121 16.21071501 16.77300108 18.5 19.4375 C22.8930888 24.57414074 26.9697396 29.86306166 30.9296875 35.34375 C33.10166864 38.13044278 35.49391942 40.51396807 38 43 C39.09384089 44.39261007 40.1605693 45.80734133 41.1875 47.25 C43.16196239 50.12268426 43.16196239 50.12268426 46 52 C46 69.82 46 87.64 46 106 C41.58106247 102.46484998 39.95181588 100.51454194 37 96 C35.99727978 94.81772932 34.97427678 93.65252146 33.9375 92.5 C29.12504105 87.1092198 24.75569456 81.37538803 20.31494141 75.67919922 C18.47832755 73.33381672 16.61575777 71.00973443 14.75 68.6875 C11.67484545 64.8561599 8.64515602 60.99239844 5.640625 57.10546875 C4.03728778 54.92994204 4.03728778 54.92994204 1.921875 53.08251953 C-1.00267435 48.39179798 -0.49534318 43.99083063 -0.390625 38.57421875 C-0.38496521 37.47149124 -0.37930542 36.36876373 -0.37347412 35.23262024 C-0.3511175 31.71713508 -0.30092021 28.20267613 -0.25 24.6875 C-0.22993418 22.30144703 -0.21168355 19.91537806 -0.1953125 17.52929688 C-0.15125501 11.6858489 -0.08434918 5.84299777 0 0 Z " fill="#01B3EC" transform="translate(152,87)"/>
<path d="M0 0 C1.12164994 0.9565422 2.24261112 1.91389208 3.36328125 2.87158203 C3.98759033 3.40461945 4.61189941 3.93765686 5.25512695 4.48684692 C10.76694861 9.26669604 15.65152939 14.64321321 20.390625 20.17578125 C21.84536251 21.82471916 23.35053206 23.35489869 24.9375 24.875 C27 27 27 27 27 29 C27.99 29.33 28.98 29.66 30 30 C31.61328125 31.671875 31.61328125 31.671875 33.3125 33.75 C38.92096707 40.38975005 38.92096707 40.38975005 46.6875 44 C49.8864705 44.29114825 49.8864705 44.29114825 51.8125 42.875 C53.2091667 40.6697368 54.13587557 38.45943107 55 36 C55.99 36.33 56.98 36.66 58 37 C57.693107 40.37582301 57.36833054 42.50889261 55.3125 45.25 C52.56632539 47.32818619 50.37268239 48.29735784 47 49 C44.875 48.125 44.875 48.125 43 47 C41.68 47 40.36 47 39 47 C39.00523682 47.66531738 39.01047363 48.33063477 39.01586914 49.01611328 C39.03675253 52.05239911 39.0496962 55.08866978 39.0625 58.125 C39.07087891 59.17171875 39.07925781 60.2184375 39.08789062 61.296875 C39.10385657 66.34211474 38.92103967 71.02638579 38 76 C38.0791201 78.29415187 38.0791201 78.29415187 38.4375 80.375 C38.7159375 82.169375 38.7159375 82.169375 39 84 C41.64 84.66 44.28 85.32 47 86 C46.67 87.65 46.34 89.3 46 91 C46.99 91.495 46.99 91.495 48 92 C48.33 92.33 48.66 92.66 49 93 C50.66617115 93.04063832 52.33388095 93.042721 54 93 C54.91058531 96.07322544 55.08886184 98.80097361 55 102 C51.4580342 101.71117017 49.48852345 101.42202288 46.76171875 99.06640625 C46.07722656 98.24011719 45.39273438 97.41382813 44.6875 96.5625 C43.92050781 95.65886719 43.15351562 94.75523437 42.36328125 93.82421875 C41.19345703 92.42623047 41.19345703 92.42623047 40 91 C38.46532655 89.28538159 36.9238178 87.57685261 35.375 85.875 C30.62180547 80.59003672 25.92088495 75.26621496 21.3203125 69.84765625 C20.82571533 69.26661133 20.33111816 68.68556641 19.8215332 68.08691406 C18.86710455 66.96463814 17.91483437 65.84051984 16.96557617 64.71386719 C16.49869385 64.16504883 16.03181152 63.61623047 15.55078125 63.05078125 C15.0388623 62.42792236 14.52694336 61.80506348 13.99951172 61.16333008 C11.93162472 58.82966938 11.93162472 58.82966938 8.95751953 56.4831543 C3.62720598 51.88178392 -0.09055278 47.84838085 -0.96557617 40.64331055 C-1.32415898 34.47738392 -1.05105376 28.35010837 -0.75 22.1875 C-0.6896985 20.03074861 -0.63496479 17.873834 -0.5859375 15.71679688 C-0.45478846 10.47425557 -0.2549693 5.23790391 0 0 Z " fill="#021173" transform="translate(1,91)"/>
<path d="M0 0 C3.31495452 1.10498484 4.00274889 1.90060574 6.171875 4.51953125 C8.73155366 7.53744892 11.34295678 10.46395871 14.078125 13.32421875 C14.76390625 14.04287109 15.4496875 14.76152344 16.15625 15.50195312 C17.56541651 16.97290212 18.97692114 18.44161436 20.390625 19.90820312 C23.72654774 23.4115538 26.77107091 26.65358827 29 31 C27.9171875 30.4740625 27.9171875 30.4740625 26.8125 29.9375 C23.6877295 28.89590983 22.11838004 29.10903428 19 30 C19 27.36 19 24.72 19 22 C17.68 22 16.36 22 15 22 C13.68 22 12.36 22 11 22 C9.25 19.5 9.25 19.5 8 17 C6.02463255 17.34786708 6.02463255 17.34786708 4 18 C2.34502644 21.30994713 2.89915665 24.99123 2.9375 28.625 C2.94426758 29.82769531 2.94426758 29.82769531 2.95117188 31.0546875 C2.96296832 33.03649006 2.98090395 35.01825433 3 37 C3.99 37.33 4.98 37.66 6 38 C5 41 5 41 3 44 C4.96822886 45.96822886 8.34808709 45.66248381 11 46 C11.38133299 47.9914056 11.71325582 49.99279077 12 52 C11.505 52.495 11.505 52.495 11 53 C13.64 53.66 16.28 54.32 19 55 C18.67 56.32 18.34 57.64 18 59 C18.495 59.495 18.495 59.495 19 60 C19 60.66 19 61.32 19 62 C22.28696233 62.79953138 23.71023192 63.09658936 27 62 C26.01 64.97 26.01 64.97 25 68 C25.66 68.33 26.32 68.66 27 69 C26.67 69.66 26.34 70.32 26 71 C27.65 71.33 29.3 71.66 31 72 C30.67 71.01 30.34 70.02 30 69 C31.65 69 33.3 69 35 69 C35.33 68.34 35.66 67.68 36 67 C36 68.98 36 70.96 36 73 C33.525 73.99 33.525 73.99 31 75 C34.26545761 76.88391785 37.28111761 77.49287967 41 78 C41.33 78.99 41.66 79.98 42 81 C40.02 81.99 40.02 81.99 38 83 C41.58814065 89.15109826 44.46904678 92.99576152 51 96 C51 97.32 51 98.64 51 100 C47.44518829 99.43709055 46.06404532 98.32550747 43.8125 95.5625 C41.14800925 92.36965607 38.43311089 89.25534889 35.625 86.1875 C32.42347567 82.64839998 29.36853937 79.02896894 26.375 75.3125 C23.36585655 71.59011667 20.25941405 68.19409938 16.81640625 64.87890625 C13.74326476 61.70002226 11.0496246 58.21136027 8.30859375 54.74609375 C6.03727167 51.86603261 6.03727167 51.86603261 2.89233398 49.49389648 C0.18047555 46.78328113 -0.45488322 44.90901571 -0.68115234 41.09619141 C-0.68020947 39.18105233 -0.64672095 37.26573698 -0.5859375 35.3515625 C-0.57744781 34.33903412 -0.56895813 33.32650574 -0.56021118 32.28329468 C-0.52673745 29.06276136 -0.45146656 25.844771 -0.375 22.625 C-0.34489273 20.43623418 -0.31751827 18.24742896 -0.29296875 16.05859375 C-0.22696667 10.70486776 -0.12667949 5.35261557 0 0 Z " fill="#105EA6" transform="translate(77,90)"/>
<path d="M0 0 C0.72469482 0.72614502 1.44938965 1.45229004 2.19604492 2.20043945 C4.74155575 4.7419608 7.29975483 7.26964453 9.86328125 9.79296875 C11.67982007 11.59101191 13.49622257 13.3891928 15.3125 15.1875 C16.24384766 16.10208984 17.17519531 17.01667969 18.13476562 17.95898438 C19.01455078 18.83232422 19.89433594 19.70566406 20.80078125 20.60546875 C21.60684814 21.40106201 22.41291504 22.19665527 23.2434082 23.01635742 C25 25 25 25 25 27 C25.99 27.33 26.98 27.66 28 28 C29.7890625 29.8125 29.7890625 29.8125 31.625 32 C32.23601562 32.721875 32.84703125 33.44375 33.4765625 34.1875 C33.97929688 34.785625 34.48203125 35.38375 35 36 C35.33 36.33 35.66 36.66 36 37 C36.0927833 38.38160115 36.11747043 39.76788038 36.11352539 41.15258789 C36.11344986 42.03342545 36.11337433 42.914263 36.11329651 43.8217926 C36.10813522 44.77907761 36.10297394 45.73636261 36.09765625 46.72265625 C36.0962413 47.69786728 36.09482635 48.67307831 36.09336853 49.67784119 C36.08775133 52.80609143 36.07519593 55.93427123 36.0625 59.0625 C36.05748722 61.17773334 36.05292393 63.29296781 36.04882812 65.40820312 C36.03777631 70.60549296 36.02102146 75.80274145 36 81 C32.52711735 79.44999764 30.78172874 77.6337785 28.41796875 74.64453125 C26.39763528 72.30138967 24.07136662 70.41343228 21.69921875 68.4375 C17.64673724 65.0091938 14.23586136 61.19463509 11 57 C12.33038449 56.6550855 13.66457061 56.32483418 15 56 C15.825 55.79375 16.65 55.5875 17.5 55.375 C20 55 20 55 24 56 C24 58.97 24 61.94 24 65 C25.32 64.34 26.64 63.68 28 63 C28 62.34 28 61.68 28 61 C29.47339844 60.21882813 29.47339844 60.21882813 30.9765625 59.421875 C34.09588699 57.41890406 34.09588699 57.41890406 34.49511719 55.08398438 C34.59046445 52.78129671 34.52373862 50.54972782 34.375 48.25 C34.33439453 47.06083984 34.33439453 47.06083984 34.29296875 45.84765625 C34.22247273 43.89726634 34.11485499 41.94828099 34 40 C32.02 40 30.04 40 28 40 C26.68 37.36 25.36 34.72 24 32 C22.68 33.32 21.36 34.64 20 36 C20.03480469 35.38511719 20.06960937 34.77023438 20.10546875 34.13671875 C20.13253906 33.32847656 20.15960938 32.52023438 20.1875 31.6875 C20.22230469 30.88699219 20.25710937 30.08648437 20.29296875 29.26171875 C20.18423401 26.93581254 20.18423401 26.93581254 18.65234375 25.24609375 C16.51987107 23.63791695 14.60921125 23.41198072 12 23 C11 22 11 22 10.9375 18.9375 C10.9684375 17.4834375 10.9684375 17.4834375 11 16 C9.35 15.67 7.7 15.34 6 15 C6 14.01 6 13.02 6 12 C5.34 11.67 4.68 11.34 4 11 C4 9.68 4 8.36 4 7 C3.67 6.01 3.34 5.02 3 4 C2.01 4 1.02 4 0 4 C0 2.68 0 1.36 0 0 Z " fill="#0E78B8" transform="translate(92,24)"/>
<path d="M0 0 C0.45890625 0.40992187 0.9178125 0.81984375 1.390625 1.2421875 C2.31101562 2.05042969 2.31101562 2.05042969 3.25 2.875 C3.85328125 3.40867188 4.4565625 3.94234375 5.078125 4.4921875 C7.83013146 6.651282 10.07817519 7.88758234 13.5625 8.3125 C16.00616271 8.19197495 16.00616271 8.19197495 17.6875 6.8125 C19.24824919 4.65717969 20.12052567 2.50311926 21 0 C22.485 0.495 22.485 0.495 24 1 C23.693107 4.37582301 23.36833054 6.50889261 21.3125 9.25 C18.56632539 11.32818619 16.37268239 12.29735784 13 13 C10.875 12.125 10.875 12.125 9 11 C7.68 11 6.36 11 5 11 C5.00523682 11.66531738 5.01047363 12.33063477 5.01586914 13.01611328 C5.03675253 16.05239911 5.0496962 19.08866978 5.0625 22.125 C5.07087891 23.17171875 5.07925781 24.2184375 5.08789062 25.296875 C5.10385657 30.34211474 4.92103967 35.02638579 4 40 C4.0791201 42.29415187 4.0791201 42.29415187 4.4375 44.375 C4.623125 45.57125 4.80875 46.7675 5 48 C7.64 48.66 10.28 49.32 13 50 C12.67 51.65 12.34 53.3 12 55 C12.66 55.33 13.32 55.66 14 56 C14.495 56.495 14.495 56.495 15 57 C16.66617115 57.04063832 18.33388095 57.042721 20 57 C20.91058531 60.07322544 21.08886184 62.80097361 21 66 C17.4580342 65.71117017 15.48852345 65.42202288 12.76171875 63.06640625 C12.07722656 62.24011719 11.39273438 61.41382813 10.6875 60.5625 C9.92050781 59.65886719 9.15351562 58.75523437 8.36328125 57.82421875 C7.58339844 56.89222656 6.80351563 55.96023437 6 55 C4.46532655 53.28538159 2.9238178 51.57685261 1.375 49.875 C0.6428125 49.05644531 -0.089375 48.23789063 -0.84375 47.39453125 C-2.26577929 45.81535742 -3.70308435 44.24978862 -5.15625 42.69921875 C-5.8059375 41.99410156 -6.455625 41.28898437 -7.125 40.5625 C-7.70507812 39.94503906 -8.28515625 39.32757813 -8.8828125 38.69140625 C-9.25148438 38.13324219 -9.62015625 37.57507813 -10 37 C-9.67 36.01 -9.34 35.02 -9 34 C-6 35 -6 35 -5 36 C-3.44679917 32.89359834 -3.66329944 29.54219195 -3.5 26.125 C-3.08048832 17.43955449 -3.08048832 17.43955449 -2 14 C-2.33 14 -2.66 14 -3 14 C-3 10.37 -3 6.74 -3 3 C-2.01 2.67 -1.02 2.34 0 2 C0 1.34 0 0.68 0 0 Z " fill="#032282" transform="translate(35,127)"/>
<path d="M0 0 C3.78530919 1.73946323 5.65212445 3.71060362 8.25 7 C9.02730469 7.97582031 9.80460938 8.95164062 10.60546875 9.95703125 C11.39566406 10.96121094 12.18585938 11.96539062 13 13 C14.51982532 14.89664152 16.04058245 16.79253694 17.5625 18.6875 C18.70896699 20.12449468 19.8550516 21.56179506 21 23 C20.34 23.33 19.68 23.66 19 24 C17.29115995 22.37660195 15.62553283 20.70680947 14 19 C14 18.34 14 17.68 14 17 C12.35 17.66 10.7 18.32 9 19 C8.67 18.34 8.34 17.68 8 17 C7.34 17 6.68 17 6 17 C6.03552979 17.74685059 6.07105957 18.49370117 6.10766602 19.26318359 C6.26487305 22.63355535 6.41379014 26.0042431 6.5625 29.375 C6.61857422 30.550625 6.67464844 31.72625 6.73242188 32.9375 C6.78076172 34.05898437 6.82910156 35.18046875 6.87890625 36.3359375 C6.9260376 37.37282715 6.97316895 38.4097168 7.02172852 39.47802734 C7 42 7 42 6 44 C5.34 44 4.68 44 4 44 C4 45.65 4 47.3 4 49 C4.66 49 5.32 49 6 49 C7.625 50.5 7.625 50.5 9 52 C8.01 54.475 8.01 54.475 7 57 C4.09197539 54.78071806 2.04687238 53.07030857 0 50 C-0.24050903 47.74104309 -0.24050903 47.74104309 -0.22705078 45.06958008 C-0.22689972 44.06876907 -0.22674866 43.06795807 -0.22659302 42.03681946 C-0.21627045 40.95861435 -0.20594788 39.88040924 -0.1953125 38.76953125 C-0.1924826 37.66397385 -0.18965271 36.55841644 -0.18673706 35.4193573 C-0.17553002 31.88362872 -0.15042427 28.3481522 -0.125 24.8125 C-0.11497089 22.41732136 -0.10584492 20.02213876 -0.09765625 17.62695312 C-0.07558897 11.75121589 -0.04210618 5.87562595 0 0 Z " fill="#019EDA" transform="translate(152,87)"/>
<path d="M0 0 C0.33 1.32 0.66 2.64 1 4 C2.32 3.67 3.64 3.34 5 3 C4.67 3.99 4.34 4.98 4 6 C5.32 6.33 6.64 6.66 8 7 C7.67 7.66 7.34 8.32 7 9 C7.66 9 8.32 9 9 9 C9 9.99 9 10.98 9 12 C10.65 12.66 12.3 13.32 14 14 C14 13.34 14 12.68 14 12 C14.66 12 15.32 12 16 12 C16.33 15.96 16.66 19.92 17 24 C18.98 24 20.96 24 23 24 C23.66 24 24.32 24 25 24 C26.34882408 23.36525925 27.6846659 22.70151152 29 22 C29.99 22.99 30.98 23.98 32 25 C31.34 25 30.68 25 30 25 C30.26393501 28.43230448 30.26393501 28.43230448 31 32 C31.99 32.66 32.98 33.32 34 34 C33.34 34.66 32.68 35.32 32 36 C32.3185177 38.10820797 32.3185177 38.10820797 33 40 C33.99 40 34.98 40 36 40 C38.1519437 43.22791555 38.20086443 44.28400809 38 48 C33.83917246 44.75252484 30.40604253 41.31681978 26.984375 37.3046875 C24.70466395 34.65699159 22.35733556 32.07878224 20 29.5 C17.05731303 26.27196156 14.12818742 23.03571838 11.25 19.75 C10.69441406 19.12222656 10.13882813 18.49445313 9.56640625 17.84765625 C8 16 8 16 6.58984375 14.05859375 C2.604302 8.74083748 -1.57892548 7.33243641 -8 6 C-8 4.35 -8 2.7 -8 1 C-4.93251126 -0.86240388 -3.40254489 -1.2151946 0 0 Z " fill="#05A6DB" transform="translate(160,55)"/>
<path d="M0 0 C0.99 0 1.98 0 3 0 C2.93943537 15.54254767 2.86191418 31.08494256 2.76428509 46.62729836 C2.7193467 53.84412805 2.67992759 61.06090861 2.65356445 68.27783203 C2.63056843 74.56915259 2.59715265 80.86031741 2.55129844 87.15151441 C2.52738752 90.48174737 2.51019915 93.81179364 2.50238609 97.14210892 C2.49277291 100.86271377 2.46474524 104.58275592 2.43237305 108.30322266 C2.43380814 109.40373962 2.43524323 110.50425659 2.4367218 111.63812256 C2.34697343 118.92460877 1.34192783 123.31535103 -3.5625 128.9375 C-6.50727691 131.27841127 -8.69641926 131.17671591 -12.375 130.8125 C-13.92113947 130.56849274 -15.46500471 130.30639234 -17 130 C-16.01 129.01 -16.01 129.01 -15 128 C-12.27130593 128.03287583 -9.7033382 128.56397771 -7 129 C-7 128.34 -7 127.68 -7 127 C-6.01 127 -5.02 127 -4 127 C-2.20051413 120.75192548 -1.59928099 114.93788739 -1.39477539 108.45288086 C-1.33881116 106.94795908 -1.33881116 106.94795908 -1.28171635 105.41263485 C-0.90174795 94.52888853 -0.77499975 83.64320811 -0.68359375 72.75390625 C-0.66293977 70.63443171 -0.6419417 68.51496049 -0.62062073 66.39549255 C-0.56626921 60.90327712 -0.51648892 55.41103014 -0.46777344 49.91876221 C-0.41691006 44.27979839 -0.36156777 38.64087856 -0.30664062 33.00195312 C-0.20012776 22.00133993 -0.0984605 11.00068802 0 0 Z " fill="#35639C" transform="translate(71,64)"/>
<path d="M0 0 C8.3284708 8.05981045 15.79147703 16.93868398 23 26 C23.79214653 26.92380463 23.79214653 26.92380463 24.60029602 27.86627197 C26.23382933 30.35645265 26.36542426 31.63632133 26.34057617 34.58496094 C26.34034958 35.48559265 26.34012299 36.38622437 26.33988953 37.31414795 C26.32440567 38.27782288 26.30892181 39.2414978 26.29296875 40.234375 C26.28872391 41.22753723 26.28447906 42.22069946 26.28010559 43.24395752 C26.26332634 46.41291528 26.225675 49.58123478 26.1875 52.75 C26.17245221 54.89973039 26.15876397 57.04947076 26.14648438 59.19921875 C26.11342536 64.46636323 26.06323334 69.73313601 26 75 C24.87299529 74.05094464 23.7483705 73.09906264 22.62475586 72.14599609 C21.99822617 71.61622162 21.37169647 71.08644714 20.72618103 70.5406189 C18.70991831 68.7411017 17.1210631 66.82979659 15.5625 64.625 C15.06878906 63.93664062 14.57507812 63.24828125 14.06640625 62.5390625 C13.53853516 61.77722656 13.53853516 61.77722656 13 61 C13.5775 61.165 14.155 61.33 14.75 61.5 C17.26664369 62.14462031 17.26664369 62.14462031 21 62 C21.66 62.99 22.32 63.98 23 65 C23.02505615 64.21874756 23.0501123 63.43749512 23.07592773 62.63256836 C23.19250203 59.06740383 23.31494865 55.50246387 23.4375 51.9375 C23.47681641 50.70837891 23.51613281 49.47925781 23.55664062 48.21289062 C23.76005858 42.40765506 23.98776102 36.7246793 25 31 C24.03900391 30.92265625 24.03900391 30.92265625 23.05859375 30.84375 C16.64948447 30.00321108 13.14412288 28.28788883 9.12890625 23.1640625 C7.43849474 19.92361968 8.18665567 17.45671339 9 14 C7.70735301 12.03568595 7.70735301 12.03568595 6 11 C6 11.66 6 12.32 6 13 C4.68 13.33 3.36 13.66 2 14 C2.66 12.68 3.32 11.36 4 10 C1.94388244 7.00602162 1.94388244 7.00602162 -1 5 C-0.67 3.35 -0.34 1.7 0 0 Z " fill="#0B2C7D" transform="translate(25,34)"/>
<path d="M0 0 C1.4540625 0.0309375 1.4540625 0.0309375 2.9375 0.0625 C3.31883299 2.0539056 3.65075582 4.05529077 3.9375 6.0625 C3.6075 6.3925 3.2775 6.7225 2.9375 7.0625 C5.5775 7.7225 8.2175 8.3825 10.9375 9.0625 C10.6075 10.3825 10.2775 11.7025 9.9375 13.0625 C10.2675 13.3925 10.5975 13.7225 10.9375 14.0625 C10.9375 14.7225 10.9375 15.3825 10.9375 16.0625 C14.22446233 16.86203138 15.64773192 17.15908936 18.9375 16.0625 C18.2775 18.0425 17.6175 20.0225 16.9375 22.0625 C17.5975 22.3925 18.2575 22.7225 18.9375 23.0625 C18.6075 23.7225 18.2775 24.3825 17.9375 25.0625 C19.5875 25.3925 21.2375 25.7225 22.9375 26.0625 C22.6075 25.0725 22.2775 24.0825 21.9375 23.0625 C23.5875 23.0625 25.2375 23.0625 26.9375 23.0625 C27.2675 22.4025 27.5975 21.7425 27.9375 21.0625 C27.9375 23.0425 27.9375 25.0225 27.9375 27.0625 C26.2875 27.7225 24.6375 28.3825 22.9375 29.0625 C26.20295761 30.94641785 29.21861761 31.55537967 32.9375 32.0625 C33.2675 33.0525 33.5975 34.0425 33.9375 35.0625 C32.6175 35.7225 31.2975 36.3825 29.9375 37.0625 C33.52564065 43.21359826 36.40654678 47.05826152 42.9375 50.0625 C42.9375 51.3825 42.9375 52.7025 42.9375 54.0625 C39.38268829 53.49959055 38.00154532 52.38800747 35.75 49.625 C33.08550925 46.43215607 30.37061089 43.31784889 27.5625 40.25 C24.36097567 36.71089998 21.30603937 33.09146894 18.3125 29.375 C15.78927234 26.25266975 13.26204668 23.28884782 10.375 20.5 C-0.57210278 9.88618138 -0.57210278 9.88618138 -2.0625 3.0625 C-2.7225 2.4025 -3.3825 1.7425 -4.0625 1.0625 C-3.0625 0.0625 -3.0625 0.0625 0 0 Z " fill="#0668AE" transform="translate(85.0625,135.9375)"/>
<path d="M0 0 C1.485 0.99 1.485 0.99 3 2 C5.64632287 1.6878236 5.64632287 1.6878236 8 1 C7.67 2.32 7.34 3.64 7 5 C6.67 5 6.34 5 6 5 C6.11042245 8.87555857 6.24092364 12.75019332 6.375 16.625 C6.4059375 17.71941406 6.436875 18.81382813 6.46875 19.94140625 C6.65831506 27.68822876 6.65831506 27.68822876 9 35 C10.64551962 35.71727778 12.31422289 36.38325228 14 37 C17 41.13793103 17 41.13793103 17 44 C17.763125 44.020625 18.52625 44.04125 19.3125 44.0625 C22 45 22 45 23.8125 48.375 C25 52 25 52 25 55 C11.49007657 41.67291764 11.49007657 41.67291764 6.5625 35.78125 C4.93030569 33.83359132 4.93030569 33.83359132 2.43286133 31.81567383 C-0.58697019 28.32066962 -0.58859609 26.7222623 -0.48828125 22.16796875 C-0.47216797 20.87568359 -0.45605469 19.58339844 -0.43945312 18.25195312 C-0.39768274 16.89711843 -0.35535809 15.54230072 -0.3125 14.1875 C-0.28740069 12.81319134 -0.26459036 11.43883884 -0.24414062 10.06445312 C-0.18526461 6.70852024 -0.1030642 3.3548191 0 0 Z " fill="#0B0D6C" transform="translate(0,27)"/>
<path d="M0 0 C0.33 0 0.66 0 1 0 C1 22.77 1 45.54 1 69 C0.34 69 -0.32 69 -1 69 C-1 69.66 -1 70.32 -1 71 C-2.5 73.125 -2.5 73.125 -5 75 C-7.75864942 75.34746348 -10.20232963 75.18651136 -13 75 C-13.33 76.65 -13.66 78.3 -14 80 C-14.66 80 -15.32 80 -16 80 C-16 79.34 -16 78.68 -16 78 C-16.66 78 -17.32 78 -18 78 C-18.66 79.65 -19.32 81.3 -20 83 C-20.33 83 -20.66 83 -21 83 C-21 76.73 -21 70.46 -21 64 C-23.64 64 -26.28 64 -29 64 C-29 63.34 -29 62.68 -29 62 C-28.01 61.505 -28.01 61.505 -27 61 C-27 60.01 -27 59.02 -27 58 C-23.35286156 59.50660572 -21.31303469 61.657157 -18.6875 64.5625 C-15.01412891 68.43918583 -15.01412891 68.43918583 -10.125 70.125 C-6.96787587 70.14376866 -6.96787587 70.14376866 -4 69 C0.06058882 62.4459306 -0.52281139 55.24194941 -0.48828125 47.75390625 C-0.47141463 46.37383954 -0.45326174 44.993788 -0.43388367 43.61375427 C-0.38659208 40.00205225 -0.35664875 36.39041177 -0.33044434 32.77850342 C-0.30053281 29.08463388 -0.25403921 25.390976 -0.20898438 21.69726562 C-0.12318886 14.46494927 -0.05573893 7.23261712 0 0 Z " fill="#0C83BF" transform="translate(133,64)"/>
<path d="M0 0 C0.99 0.66 1.98 1.32 3 2 C0.35541621 3.32229189 -1.67761301 3.09677194 -4.625 3.0625 C-5.62789062 3.05347656 -6.63078125 3.04445313 -7.6640625 3.03515625 C-8.43492187 3.02355469 -9.20578125 3.01195312 -10 3 C-10.33 4.32 -10.66 5.64 -11 7 C-11.66 7 -12.32 7 -13 7 C-12.67 7.66 -12.34 8.32 -12 9 C-11.90581048 10.3824763 -11.87206353 11.76934887 -11.87060547 13.1550293 C-11.86745331 14.01319748 -11.86430115 14.87136566 -11.86105347 15.75553894 C-11.8630777 16.68570328 -11.86510193 17.61586761 -11.8671875 18.57421875 C-11.86623077 19.53141312 -11.86527405 20.48860748 -11.86428833 21.47480774 C-11.86360678 23.50493434 -11.86545929 25.53506311 -11.86962891 27.56518555 C-11.87494829 30.65743996 -11.86969824 33.74954718 -11.86328125 36.84179688 C-11.86394261 38.81510449 -11.86522497 40.788412 -11.8671875 42.76171875 C-11.86516327 43.68176193 -11.86313904 44.60180511 -11.86105347 45.54972839 C-11.86420563 46.42365738 -11.86735779 47.29758636 -11.87060547 48.19799805 C-11.87179886 49.33811592 -11.87179886 49.33811592 -11.87301636 50.50126648 C-12 53 -12 53 -12.49525452 56.39474487 C-12.97231861 59.80227963 -13.15611662 63.04871785 -13.20532227 66.48608398 C-13.22526749 67.72684189 -13.24521271 68.96759979 -13.26576233 70.24595642 C-13.28273983 71.57933431 -13.29961888 72.91271345 -13.31640625 74.24609375 C-13.33700832 75.62615027 -13.35800557 77.00620094 -13.37937927 78.38624573 C-13.43426442 81.99794748 -13.48381995 85.60970297 -13.53222656 89.22149658 C-13.58268851 92.91529048 -13.63824496 96.60900748 -13.69335938 100.30273438 C-13.80052972 107.53509091 -13.90206389 114.7675119 -14 122 C-14.33 122 -14.66 122 -15 122 C-15.0701044 107.22263618 -15.12299516 92.4452944 -15.15543652 77.66779804 C-15.17090049 70.80622611 -15.19198091 63.94475754 -15.22631836 57.08325195 C-15.2594316 50.46321531 -15.27684682 43.84325794 -15.28463173 37.22313499 C-15.29018059 34.69573462 -15.30101595 32.1683402 -15.31719017 29.64098549 C-15.33892401 26.10468397 -15.34196855 22.56882812 -15.34057617 19.0324707 C-15.351362 17.98446289 -15.36214783 16.93645508 -15.3732605 15.85668945 C-15.34634191 9.5507388 -14.71753988 5.91883913 -10.3125 1.1875 C-6.73300344 -0.65061986 -4.00819785 -0.31811094 0 0 Z " fill="#379ECE" transform="translate(147,4)"/>
<path d="M0 0 C1.11979242 1.11979242 2.23889873 2.24027567 3.35546875 3.36328125 C4.5980685 4.59997791 5.85283833 5.82446294 7.11328125 7.04296875 C8.20189453 8.10451172 8.20189453 8.10451172 9.3125 9.1875 C10.00988281 9.86167969 10.70726562 10.53585938 11.42578125 11.23046875 C13 13 13 13 13 15 C13.99 15.33 14.98 15.66 16 16 C17.60546875 17.55859375 17.60546875 17.55859375 19.1875 19.4375 C19.71730469 20.05496094 20.24710938 20.67242187 20.79296875 21.30859375 C22 23 22 23 22 25 C22.66 25 23.32 25 24 25 C27.44689379 28.01826451 29.8307414 30.71847062 30.4375 35.3125 C30 38 30 38 29 40 C28.34 40 27.68 40 27 40 C25.95550089 36.86650268 26.06576355 36.01031744 27 33 C25.35 32.01 23.7 31.02 22 30 C22 32.97 22 35.94 22 39 C20.02 39.495 20.02 39.495 18 40 C17.67 34.72 17.34 29.44 17 24 C14.03 24.33 11.06 24.66 8 25 C8 24.01 8 23.02 8 22 C7.76768735 19.74739695 7.49260546 17.50180311 7.21875 15.25390625 C7 13 7 13 7 9 C6.34 9 5.68 9 5 9 C2.375 6.75 2.375 6.75 0 4 C0 2.68 0 1.36 0 0 Z M17 22 C18 24 18 24 18 24 Z " fill="#03B5F0" transform="translate(168,24)"/>
<path d="M0 0 C0.33 0 0.66 0 1 0 C1.09363388 14.44748538 1.16380587 28.8949234 1.20724869 43.34265041 C1.22783334 50.05169789 1.2558748 56.76055632 1.30175781 63.46948242 C1.3452962 69.94691532 1.36915436 76.42415209 1.37950897 82.90172005 C1.3868859 85.3700068 1.40129127 87.83828312 1.42292023 90.30648613 C1.45205935 93.77023182 1.45595146 97.23317246 1.45410156 100.69702148 C1.47567322 102.21940933 1.47567322 102.21940933 1.49768066 103.77255249 C1.45577635 111.04859275 0.18838869 117.60590882 -4.9375 123.0625 C-7.43162643 124.19619383 -9.29023843 124.22581346 -12 124 C-10.02 123.505 -10.02 123.505 -8 123 C-8 122.34 -8 121.68 -8 121 C-7.01 121 -6.02 121 -5 121 C-5 120.01 -5 119.02 -5 118 C-4.01 117.505 -4.01 117.505 -3 117 C-1.6200263 112.48627305 -1.83404564 107.76545052 -1.81054688 103.08911133 C-1.79810692 101.75613258 -1.79810692 101.75613258 -1.78541565 100.39622498 C-1.76804413 98.46853709 -1.75286946 96.54082844 -1.73963928 94.61310768 C-1.71849796 91.54545959 -1.69147509 88.47791199 -1.66296387 85.4103241 C-1.60334079 78.87775585 -1.55130376 72.34513809 -1.5 65.8125 C-1.44039589 58.28102506 -1.37756989 50.74959741 -1.30812073 43.21820641 C-1.28196611 40.22644472 -1.2608881 37.23467726 -1.2401123 34.24287415 C-1.14546203 22.80089261 -0.75490743 11.41775429 0 0 Z " fill="#3DA4C9" transform="translate(148,70)"/>
<path d="M0 0 C3.71082905 2.56314996 5.15262479 4.86539834 7 9 C7.33 9.66 7.66 10.32 8 11 C7.01 11.495 7.01 11.495 6 12 C4.91305101 15.79853296 4.88371316 19.46347759 4.90234375 23.39453125 C4.90556641 24.59658203 4.90878906 25.79863281 4.91210938 27.03710938 C4.92048828 28.28298828 4.92886719 29.52886719 4.9375 30.8125 C4.94201172 32.07771484 4.94652344 33.34292969 4.95117188 34.64648438 C4.96293749 37.7643711 4.97937728 40.88216133 5 44 C5.66 44.33 6.32 44.66 7 45 C7.625 48.0625 7.625 48.0625 8 51 C5.53215897 50.64745128 3.97461266 49.98328208 1.88378906 48.60644531 C-1.07563496 44.51173161 -0.4937424 40.46944826 -0.390625 35.546875 C-0.38496521 34.53151672 -0.37930542 33.51615845 -0.37347412 32.47003174 C-0.35109753 29.22953999 -0.30089755 25.9901571 -0.25 22.75 C-0.22993671 20.55209931 -0.21168565 18.35418128 -0.1953125 16.15625 C-0.15122871 10.7704555 -0.08430373 5.38530697 0 0 Z " fill="#01025A" transform="translate(1,91)"/>
<path d="M0 0 C1.258125 0.350625 2.51625 0.70125 3.8125 1.0625 C4.864375 1.371875 5.91625 1.68125 7 2 C7.33 3.65 7.66 5.3 8 7 C7.071875 6.360625 6.14375 5.72125 5.1875 5.0625 C0.58122242 2.08196745 -3.56600763 1.21614925 -9 2 C-12.44312714 4.1244827 -13.71617547 5.14852641 -15 9 C-15.09476861 10.58746962 -15.13326856 12.17860166 -15.13803101 13.76889038 C-15.14621101 15.24092171 -15.14621101 15.24092171 -15.15455627 16.74269104 C-15.1555986 17.8180864 -15.15664093 18.89348175 -15.15771484 20.00146484 C-15.16279556 21.13503922 -15.16787628 22.26861359 -15.17311096 23.4365387 C-15.18382257 25.90178018 -15.19243964 28.36703143 -15.19923019 30.83228683 C-15.21100145 34.73212551 -15.23044933 38.63185255 -15.25234985 42.53164673 C-15.31424331 53.62099244 -15.36828396 64.71033282 -15.40136719 75.79980469 C-15.4216803 82.57902399 -15.45756744 89.35803239 -15.50212479 96.13713455 C-15.51630641 98.72310624 -15.52501207 101.30911389 -15.52817917 103.89512253 C-15.53307559 107.51021414 -15.55620167 111.12476412 -15.58349609 114.73974609 C-15.58048996 115.81109299 -15.57748383 116.88243988 -15.5743866 117.98625183 C-15.67871658 127.26896801 -15.67871658 127.26896801 -19 131 C-19.66 131 -20.32 131 -21 131 C-19.125 126.125 -19.125 126.125 -18 125 C-17.90418178 123.46914161 -17.87811892 121.93386244 -17.87974548 120.40000916 C-17.87768349 118.90864189 -17.87768349 118.90864189 -17.87557983 117.387146 C-17.87917511 116.28735413 -17.88277039 115.18756226 -17.88647461 114.05444336 C-17.88632858 112.90337601 -17.88618256 111.75230865 -17.8860321 110.56636047 C-17.88673182 106.74083609 -17.89452698 102.91535969 -17.90234375 99.08984375 C-17.90420772 96.44568407 -17.90563172 93.80152404 -17.90663147 91.15736389 C-17.90974451 84.89584583 -17.91795752 78.63434514 -17.92798096 72.37283474 C-17.93914295 65.24598463 -17.94465276 58.1191337 -17.94967639 50.99227703 C-17.96014016 36.3281757 -17.97773907 21.66408809 -18 7 C-17.34 7 -16.68 7 -16 7 C-16 6.01 -16 5.02 -16 4 C-15.34 4 -14.68 4 -14 4 C-13.67 2.68 -13.34 1.36 -13 0 C-4.563 -1.287 -4.563 -1.287 0 0 Z " fill="#E8FEFE" transform="translate(148,3)"/>
<path d="M0 0 C0.33 0 0.66 0 1 0 C1 23.76 1 47.52 1 72 C1.99 72.33 2.98 72.66 4 73 C5.45961383 74.63264644 6.84906752 76.32912023 8.1875 78.0625 C9.26064453 79.44115234 9.26064453 79.44115234 10.35546875 80.84765625 C10.89816406 81.55792969 11.44085938 82.26820313 12 83 C10.515 83.495 10.515 83.495 9 84 C8.67 83.01 8.34 82.02 8 81 C7.01 80.67 6.02 80.34 5 80 C4.30062468 78.68352881 3.63270867 77.34977849 3 76 C2.34 75.67 1.68 75.34 1 75 C0.67 90.51 0.34 106.02 0 122 C-1.98 122.99 -1.98 122.99 -4 124 C-3.5143734 122.61769951 -3.5143734 122.61769951 -3.01893616 121.20747375 C-1.56552441 116.08029428 -1.70000028 110.97435284 -1.69702148 105.68041992 C-1.68858215 104.56094971 -1.68014282 103.44147949 -1.67144775 102.28808594 C-1.64573707 98.60220906 -1.63354744 94.91641211 -1.62109375 91.23046875 C-1.6049163 88.66692981 -1.58773604 86.10339702 -1.56959534 83.53987122 C-1.52862027 77.48991616 -1.49558669 71.43997442 -1.46712118 65.389952 C-1.41297837 53.89926449 -1.34505558 42.40867998 -1.26918221 30.91811562 C-1.24629654 27.13895602 -1.23006284 23.359808 -1.21446228 19.58061218 C-1.20106146 17.27794261 -1.18744717 14.97527426 -1.17358398 12.67260742 C-1.17097061 11.61546036 -1.16835724 10.55831329 -1.16566467 9.46913147 C-1.15876617 8.50887054 -1.15186768 7.54860962 -1.14476013 6.55924988 C-1.14090522 5.72213565 -1.1370503 4.88502142 -1.13307858 4.02254009 C-1 2 -1 2 0 0 Z " fill="#E0FEFE" transform="translate(150,65)"/>
<path d="M0 0 C0.99 0.33 1.98 0.66 3 1 C3.33 1.99 3.66 2.98 4 4 C4.928125 4.61875 5.85625 5.2375 6.8125 5.875 C9.96574118 7.97716079 11.83610737 9.92061433 14 13 C14 13.33 14 13.66 14 14 C16.64 14.66 19.28 15.32 22 16 C21.67 17.65 21.34 19.3 21 21 C21.66 21.33 22.32 21.66 23 22 C23.33 22.33 23.66 22.66 24 23 C25.66617115 23.04063832 27.33388095 23.042721 29 23 C29.91058531 26.07322544 30.08886184 28.80097361 30 32 C26.4580342 31.71117017 24.48852345 31.42202288 21.76171875 29.06640625 C21.07722656 28.24011719 20.39273438 27.41382813 19.6875 26.5625 C18.92050781 25.65886719 18.15351562 24.75523437 17.36328125 23.82421875 C16.58339844 22.89222656 15.80351563 21.96023437 15 21 C13.46532655 19.28538159 11.9238178 17.57685261 10.375 15.875 C9.27671875 14.64716797 9.27671875 14.64716797 8.15625 13.39453125 C6.73422071 11.81535742 5.29691565 10.24978862 3.84375 8.69921875 C3.1940625 7.99410156 2.544375 7.28898438 1.875 6.5625 C1.29492188 5.94503906 0.71484375 5.32757813 0.1171875 4.69140625 C-0.25148438 4.13324219 -0.62015625 3.57507813 -1 3 C-0.67 2.01 -0.34 1.02 0 0 Z " fill="#092C7C" transform="translate(26,161)"/>
<path d="M0 0 C4.25509871 2.0207906 6.10732846 4.30380858 9 8 C8.67 8.66 8.34 9.32 8 10 C7.34 9.34 6.68 8.68 6 8 C5.01 8 4.02 8 3 8 C3 21.53 3 35.06 3 49 C3.99 49 4.98 49 6 49 C7.6875 50.5 7.6875 50.5 9 52 C8.01 54.475 8.01 54.475 7 57 C4.09197539 54.78071806 2.04687238 53.07030857 0 50 C-0.24050903 47.74104309 -0.24050903 47.74104309 -0.22705078 45.06958008 C-0.22689972 44.06876907 -0.22674866 43.06795807 -0.22659302 42.03681946 C-0.21627045 40.95861435 -0.20594788 39.88040924 -0.1953125 38.76953125 C-0.1924826 37.66397385 -0.18965271 36.55841644 -0.18673706 35.4193573 C-0.17553002 31.88362872 -0.15042427 28.3481522 -0.125 24.8125 C-0.11497089 22.41732136 -0.10584492 20.02213876 -0.09765625 17.62695312 C-0.07558897 11.75121589 -0.04210618 5.87562595 0 0 Z " fill="#0E9AD1" transform="translate(152,87)"/>
<path d="M0 0 C1.32 0.99 2.64 1.98 4 3 C3.34 3 2.68 3 2 3 C2.26393501 6.43230448 2.26393501 6.43230448 3 10 C3.99 10.66 4.98 11.32 6 12 C5.34 12.66 4.68 13.32 4 14 C4.3185177 16.10820797 4.3185177 16.10820797 5 18 C5.99 18 6.98 18 8 18 C10.1519437 21.22791555 10.20086443 22.28400809 10 26 C5.69114547 22.63699159 2.14405459 19.03918174 -1.38671875 14.8671875 C-2.95262164 12.98818995 -2.95262164 12.98818995 -4.6953125 11.4140625 C-6 10 -6 10 -6.1875 7.5 C-6.125625 6.675 -6.06375 5.85 -6 5 C-6 4.01 -6 3.02 -6 2 C-5.01 2 -4.02 2 -3 2 C-2.01 1.34 -1.02 0.68 0 0 Z " fill="#04BDF3" transform="translate(188,77)"/>
<path d="M0 0 C3.73639216 1.24546405 4.18756513 2.63404953 6 6 C4.68 6 3.36 6 2 6 C2.33 16.23 2.66 26.46 3 37 C3.99 37.33 4.98 37.66 6 38 C5 41 5 41 3 44 C3.680625 44.763125 4.36125 45.52625 5.0625 46.3125 C5.701875 47.199375 6.34125 48.08625 7 49 C6.67 49.99 6.34 50.98 6 52 C0.35953355 47.55658756 0.35953355 47.55658756 -0.53631592 43.67803955 C-0.69297884 40.88537275 -0.67471371 38.14727695 -0.5859375 35.3515625 C-0.57744781 34.33903412 -0.56895813 33.32650574 -0.56021118 32.28329468 C-0.52673745 29.06276136 -0.45146656 25.844771 -0.375 22.625 C-0.34489273 20.43623418 -0.31751827 18.24742896 -0.29296875 16.05859375 C-0.22696667 10.70486776 -0.12667949 5.35261557 0 0 Z " fill="#114A88" transform="translate(77,90)"/>
<path d="M0 0 C1.4540625 0.0309375 1.4540625 0.0309375 2.9375 0.0625 C3.31883299 2.0539056 3.65075582 4.05529077 3.9375 6.0625 C3.6075 6.3925 3.2775 6.7225 2.9375 7.0625 C5.5775 7.7225 8.2175 8.3825 10.9375 9.0625 C10.6075 10.3825 10.2775 11.7025 9.9375 13.0625 C10.2675 13.3925 10.5975 13.7225 10.9375 14.0625 C10.9375 14.7225 10.9375 15.3825 10.9375 16.0625 C12.2575 16.7225 13.5775 17.3825 14.9375 18.0625 C14.9375 19.3825 14.9375 20.7025 14.9375 22.0625 C15.5975 22.3925 16.2575 22.7225 16.9375 23.0625 C16.6075 24.0525 16.2775 25.0425 15.9375 26.0625 C-0.44336643 10.36416968 -0.44336643 10.36416968 -2.0625 3.0625 C-2.7225 2.4025 -3.3825 1.7425 -4.0625 1.0625 C-3.0625 0.0625 -3.0625 0.0625 0 0 Z " fill="#115B9D" transform="translate(85.0625,135.9375)"/>
<path d="M0 0 C0.99 1.32 1.98 2.64 3 4 C2.01 5.485 2.01 5.485 1 7 C0.69026843 9.07451009 0.69026843 9.07451009 0.7215271 11.38493347 C0.71036362 12.28095779 0.69920013 13.17698212 0.68769836 14.10015869 C0.68553818 15.08055115 0.68337799 16.0609436 0.68115234 17.07104492 C0.67110672 18.10536148 0.6610611 19.13967804 0.65071106 20.20533752 C0.61977501 23.63037552 0.60281486 27.05533498 0.5859375 30.48046875 C0.56723425 32.85273418 0.54766148 35.2249929 0.5272522 37.59724426 C0.47583601 43.8459783 0.43626104 50.09473393 0.39910889 56.34356689 C0.35912868 62.71803164 0.30800908 69.09240584 0.2578125 75.46679688 C0.16094089 87.97779992 0.07619396 100.48885482 0 113 C-0.33 113 -0.66 113 -1 113 C-1.02333991 98.56194262 -1.04091812 84.12388817 -1.05181217 69.68581581 C-1.0569728 62.98226924 -1.06401108 56.27873437 -1.07543945 49.57519531 C-1.08627293 43.11078135 -1.09227782 36.64637958 -1.09487724 30.18195724 C-1.09673066 27.71070539 -1.10034967 25.23945424 -1.10573006 22.76820755 C-1.11294657 19.31762479 -1.11399068 15.86709295 -1.11352539 12.41650391 C-1.11712067 11.38576248 -1.12071594 10.35502106 -1.12442017 9.29304504 C-1.1230455 8.35632462 -1.12167084 7.41960419 -1.12025452 6.45449829 C-1.12117631 5.63778971 -1.1220981 4.82108112 -1.12304783 3.97962379 C-1 2 -1 2 0 0 Z " fill="#153B7D" transform="translate(57,10)"/>
<path d="M0 0 C2.46948242 1.23730469 2.46948242 1.23730469 5 4 C5.73939517 8.05942845 5.57976133 12.08918091 5.48828125 16.203125 C5.48120651 17.39605164 5.47413177 18.58897827 5.46684265 19.8180542 C5.43884739 23.62933984 5.37609402 27.43915814 5.3125 31.25 C5.28742401 33.83331212 5.26460963 36.41664726 5.24414062 39 C5.18900356 45.33383424 5.10532385 51.6668123 5 58 C4.67 58 4.34 58 4 58 C3.00959054 41.65824395 2.88388352 25.36885022 3 9 C2.01 9 1.02 9 0 9 C-0.84454356 5.62182575 -1.10844919 3.32534757 0 0 Z " fill="#23D3F5" transform="translate(193,135)"/>
<path d="M0 0 C5.13260077 4.25630308 9.7809057 8.73808198 14.3125 13.625 C14.93189453 14.27984375 15.55128906 14.9346875 16.18945312 15.609375 C16.78306641 16.24617188 17.37667969 16.88296875 17.98828125 17.5390625 C18.51977783 18.10834473 19.05127441 18.67762695 19.59887695 19.26416016 C21 21 21 21 22.00073242 23.15380859 C22.9189525 25.35286514 22.9189525 25.35286514 26 26 C25.34 26.33 24.68 26.66 24 27 C18.87048991 25.10431149 16.65626941 22.72225673 14 18 C13.67 17.01 13.34 16.02 13 15 C11.68 15 10.36 15 9 15 C8.67 15.66 8.34 16.32 8 17 C6.35 16.67 4.7 16.34 3 16 C3.33 15.01 3.66 14.02 4 13 C4.66 13 5.32 13 6 13 C5.73445312 12.48050781 5.46890625 11.96101563 5.1953125 11.42578125 C3.29301903 7.66979306 1.48040295 3.94774121 0 0 Z " fill="#0F1665" transform="translate(5,95)"/>
<path d="M0 0 C5.08515933 3.78127232 8.7938104 8.25649505 12.7421875 13.1953125 C15.72003467 16.89443753 18.84124361 20.45528624 22 24 C21.34 24.66 20.68 25.32 20 26 C20 25.34 20 24.68 20 24 C18.68 23.67 17.36 23.34 16 23 C15.67 21.35 15.34 19.7 15 18 C13.02 18.33 11.04 18.66 9 19 C8 14.25 8 14.25 8 12 C5.69 11.01 3.38 10.02 1 9 C0.67 9.66 0.34 10.32 0 11 C0 7.37 0 3.74 0 0 Z " fill="#171860" transform="translate(0,5)"/>
<path d="M0 0 C0.45890625 0.40992187 0.9178125 0.81984375 1.390625 1.2421875 C2.00421875 1.78101563 2.6178125 2.31984375 3.25 2.875 C3.85328125 3.40867188 4.4565625 3.94234375 5.078125 4.4921875 C7.83013146 6.651282 10.07817519 7.88758234 13.5625 8.3125 C16.00616271 8.19197495 16.00616271 8.19197495 17.6875 6.8125 C19.24824919 4.65717969 20.12052567 2.50311926 21 0 C21.99 0.33 22.98 0.66 24 1 C23.693107 4.37582301 23.36833054 6.50889261 21.3125 9.25 C18.56632539 11.32818619 16.37268239 12.29735784 13 13 C10.9375 12.125 10.9375 12.125 9 11 C7.7934375 11.12375 7.7934375 11.12375 6.5625 11.25 C4 11 4 11 1.125 8.3125 C-1 5 -1 5 -0.8125 2.125 C-0.544375 1.42375 -0.27625 0.7225 0 0 Z " fill="#0E317F" transform="translate(35,127)"/>
<path d="M0 0 C2.0625 0.4375 2.0625 0.4375 4 1 C3.525625 1.598125 3.05125 2.19625 2.5625 2.8125 C-0.34450849 6.88231189 -0.28945947 11.04640628 -0.52734375 15.8671875 C-0.56866928 16.65833954 -0.60999481 17.44949158 -0.65257263 18.26461792 C-1.12981301 27.8796199 -1.34748876 37.50127249 -1.5625 47.125 C-1.60585773 48.97005826 -1.64947632 50.81511041 -1.69335938 52.66015625 C-1.7985644 57.10670651 -1.90029441 61.55332317 -2 66 C-2.33 66 -2.66 66 -3 66 C-3.92982653 55.60586774 -4.10959213 45.24491283 -4.125 34.8125 C-4.13176758 32.9260376 -4.13176758 32.9260376 -4.13867188 31.00146484 C-4.12604095 22.95662058 -3.73918706 15.01066612 -3 7 C-2.34 7 -1.68 7 -1 7 C-1.020625 6.030625 -1.04125 5.06125 -1.0625 4.0625 C-1 1 -1 1 0 0 Z " fill="#0294CC" transform="translate(149,62)"/>
<path d="M0 0 C0.66 0.66 1.32 1.32 2 2 C1.67 2.66 1.34 3.32 1 4 C2.65 3.67 4.3 3.34 6 3 C11.85312783 8.88796788 11.85312783 8.88796788 12.4375 13.3125 C12 16 12 16 11 18 C10.34 18 9.68 18 9 18 C7.95550089 14.86650268 8.06576355 14.01031744 9 11 C7.35 10.01 5.7 9.02 4 8 C4 10.97 4 13.94 4 17 C2.68 17.33 1.36 17.66 0 18 C-0.19430855 15.3753399 -0.38073238 12.75053235 -0.5625 10.125 C-0.61857422 9.37863281 -0.67464844 8.63226563 -0.73242188 7.86328125 C-1.11328125 2.2265625 -1.11328125 2.2265625 0 0 Z " fill="#02BDF5" transform="translate(186,46)"/>
<path d="M0 0 C0.99 0.33 1.98 0.66 3 1 C3.33 1.99 3.66 2.98 4 4 C10.93 4.495 10.93 4.495 18 5 C17.01 6.485 17.01 6.485 16 8 C14.0546875 8.29296875 14.0546875 8.29296875 11.875 8.1875 C10.59625 8.125625 9.3175 8.06375 8 8 C7.67 9.65 7.34 11.3 7 13 C6.34 13 5.68 13 5 13 C5 12.34 5 11.68 5 11 C4.34 11 3.68 11 3 11 C2.34 12.65 1.68 14.3 1 16 C0.67 16 0.34 16 0 16 C0 10.72 0 5.44 0 0 Z " fill="#0477BB" transform="translate(112,131)"/>
<path d="M0 0 C5.77981651 4.75229358 5.77981651 4.75229358 7.5 6.6875 C10.48822455 9.30219648 14.10446795 9.86662289 17.9375 10.4375 C22.18925656 9.83010621 24.74859566 7.69347105 28 5 C26.061332 11.71077386 26.061332 11.71077386 23 14 C20.44140625 14.36328125 20.44140625 14.36328125 17.5625 14.3125 C16.61503906 14.30863281 15.66757812 14.30476562 14.69140625 14.30078125 C11.99410823 13.99934156 10.31514072 13.37375963 8 12 C8 11.34 8 10.68 8 10 C7.01 9.67 6.02 9.34 5 9 C2.58043314 6.96756384 1.21944572 4.90790904 0 2 C0 1.34 0 0.68 0 0 Z " fill="#EEFBFC" transform="translate(43,184)"/>
<path d="M0 0 C2.09063336 4.18126673 2.20124427 5.70516723 2.01171875 10.2265625 C1.94114258 12.0209375 1.94114258 12.0209375 1.86914062 13.8515625 C1.80919922 15.09679688 1.74925781 16.34203125 1.6875 17.625 C1.63916016 18.87796875 1.59082031 20.1309375 1.54101562 21.421875 C1.14479874 30.71040252 1.14479874 30.71040252 0 33 C0.66 33.33 1.32 33.66 2 34 C1.01 34.66 0.02 35.32 -1 36 C-1.66 35.67 -2.32 35.34 -3 35 C-8.32967208 34.65907959 -8.32967208 34.65907959 -13 37 C-13.495 35.515 -13.495 35.515 -14 34 C-13.34 34 -12.68 34 -12 34 C-12 33.34 -12 32.68 -12 32 C-8.04 32.495 -8.04 32.495 -4 33 C-4.20625 32.38125 -4.4125 31.7625 -4.625 31.125 C-4.74875 30.42375 -4.8725 29.7225 -5 29 C-4.34 28.34 -3.68 27.68 -3 27 C-2.01 27 -1.02 27 0 27 C0 18.09 0 9.18 0 0 Z " fill="#055CAC" transform="translate(87,29)"/>
<path d="M0 0 C4.89434213 4.09526587 9.70720334 8.26357085 14 13 C14 13.33 14 13.66 14 14 C12.6078125 13.9690625 12.6078125 13.9690625 11.1875 13.9375 C7.97713989 13.84230396 7.97713989 13.84230396 5 15 C4.87625 14.360625 4.7525 13.72125 4.625 13.0625 C4.41875 12.381875 4.2125 11.70125 4 11 C3.34 10.67 2.68 10.34 2 10 C2 8.68 2 7.36 2 6 C1.38001259 3.98504093 0.72045764 1.9812585 0 0 Z " fill="#0D55A1" transform="translate(78,10)"/>
<path d="M0 0 C6.03518337 4.98558626 11.50757503 10.42810265 17 16 C18.66550644 17.66782609 20.33184987 19.33481811 22 21 C21.01 21 20.02 21 19 21 C19 20.34 19 19.68 19 19 C17.68 18.67 16.36 18.34 15 18 C15 17.34 15 16.68 15 16 C14.071875 15.566875 14.071875 15.566875 13.125 15.125 C11 14 11 14 9 12 C8.01 11.34 7.02 10.68 6 10 C6 9.34 6 8.68 6 8 C3.69 7.67 1.38 7.34 -1 7 C-0.67 4.69 -0.34 2.38 0 0 Z " fill="#DBF1FA" transform="translate(92,71)"/>
<path d="M0 0 C1.32 0 2.64 0 4 0 C4.66 1.98 5.32 3.96 6 6 C6.66 6 7.32 6 8 6 C8 7.98 8 9.96 8 12 C6 12 4 12 2 12 C1.34 12.66 0.68 13.32 0 14 C0 9.38 0 4.76 0 0 Z " fill="#0153A4" transform="translate(79,96)"/>
<path d="M0 0 C4.53786224 2.26893112 5.94678157 4.09866534 9 8 C8.67 8.66 8.34 9.32 8 10 C3.125 6.25 3.125 6.25 2 4 C1.67 19.18 1.34 34.36 1 50 C0.67 50 0.34 50 0 50 C0 33.5 0 17 0 0 Z " fill="#3C9CCD" transform="translate(152,87)"/>
<path d="M0 0 C6.98231561 1.16371927 10.37022306 4.8290803 15 10 C14.67 10.66 14.34 11.32 14 12 C12.02 12 10.04 12 8 12 C6.68 9.36 5.36 6.72 4 4 C2.68 5.32 1.36 6.64 0 8 C0 5.36 0 2.72 0 0 Z " fill="#0578C1" transform="translate(112,52)"/>
<path d="M0 0 C2.8125 0.1875 2.8125 0.1875 6 1 C7.85233285 3.40803271 9 4.92741925 9 8 C9.763125 8.020625 10.52625 8.04125 11.3125 8.0625 C14 9 14 9 15.8125 12.375 C17 16 17 16 17 19 C7.234375 9.234375 7.234375 9.234375 5.54882812 7.54101562 C4.2439207 6.24269033 2.913757 4.96982115 1.578125 3.703125 C0 2 0 2 0 0 Z " fill="#131E67" transform="translate(8,63)"/>
<path d="M0 0 C0.99 0.33 1.98 0.66 3 1 C3.33 1.99 3.66 2.98 4 4 C4.928125 4.61875 5.85625 5.2375 6.8125 5.875 C10.00728026 8.00485351 11.91651659 9.79464091 14 13 C14 14.32 14 15.64 14 17 C9.75091664 15.40153531 7.17774261 12.1869608 4.25 8.875 C3.74339844 8.31167969 3.23679687 7.74835938 2.71484375 7.16796875 C1.47115468 5.78348469 0.23483695 4.39238512 -1 3 C-0.67 2.01 -0.34 1.02 0 0 Z " fill="#122772" transform="translate(26,161)"/>
<path d="M0 0 C1.258125 0.350625 2.51625 0.70125 3.8125 1.0625 C4.864375 1.371875 5.91625 1.68125 7 2 C7.33 3.65 7.66 5.3 8 7 C7.071875 6.360625 6.14375 5.72125 5.1875 5.0625 C0.56084123 2.06877962 -3.54847722 1.25467462 -9 2 C-12.93646599 4.13938369 -13.82231458 5.49232737 -15.3125 9.75 C-15.539375 10.8225 -15.76625 11.895 -16 13 C-16.33 13 -16.66 13 -17 13 C-16.67 10.03 -16.34 7.06 -16 4 C-15.34 4 -14.68 4 -14 4 C-13.67 2.68 -13.34 1.36 -13 0 C-4.563 -1.287 -4.563 -1.287 0 0 Z " fill="#CAF6FE" transform="translate(148,3)"/>
<path d="M0 0 C4.59076711 1.9154221 7.34532607 5.32994932 10.68359375 8.90625 C13.0579491 11.05237895 14.97917987 12.01969858 18 13 C14.67713172 14.10762276 12.31829453 14.19118265 9 13 C6 8.96551724 6 8.96551724 6 6 C3.36 6 0.72 6 -2 6 C-2 5.34 -2 4.68 -2 4 C-1.34 3.67 -0.68 3.34 0 3 C0 2.01 0 1.02 0 0 Z " fill="#1C73AE" transform="translate(106,122)"/>
<path d="M0 0 C1.11979242 1.11979242 2.23889873 2.24027567 3.35546875 3.36328125 C4.5980685 4.59997791 5.85283833 5.82446294 7.11328125 7.04296875 C8.20189453 8.10451172 8.20189453 8.10451172 9.3125 9.1875 C10.00988281 9.86167969 10.70726562 10.53585938 11.42578125 11.23046875 C13 13 13 13 13 15 C13.99 15.33 14.98 15.66 16 16 C17.640625 17.5234375 17.640625 17.5234375 19.25 19.375 C19.79140625 19.98085938 20.3328125 20.58671875 20.890625 21.2109375 C21.25671875 21.80132812 21.6228125 22.39171875 22 23 C21.67 23.99 21.34 24.98 21 26 C20.34 26 19.68 26 19 26 C19 25.01 19 24.02 19 23 C17.22977996 20.97901574 17.22977996 20.97901574 15 19 C13.62913085 17.70529025 12.28659163 16.37849103 11 15 C11 14.34 11 13.68 11 13 C9.68 12.67 8.36 12.34 7 12 C7 11.01 7 10.02 7 9 C6.34 9 5.68 9 5 9 C2.375 6.75 2.375 6.75 0 4 C0 2.68 0 1.36 0 0 Z " fill="#2BB6E0" transform="translate(168,24)"/>
<path d="M0 0 C0.99 0.66 1.98 1.32 3 2 C3 2.66 3 3.32 3 4 C3.598125 4.268125 4.19625 4.53625 4.8125 4.8125 C7.09795418 6.05317513 8.44064279 6.92085706 10 9 C10.6875 12.1875 10.6875 12.1875 11 15 C6.125 14.125 6.125 14.125 5 13 C4.95919217 11.00041636 4.95745644 8.99954746 5 7 C3.35 6.67 1.7 6.34 0 6 C0 5.01 0 4.02 0 3 C-0.66 2.67 -1.32 2.34 -2 2 C-1.34 1.34 -0.68 0.68 0 0 Z " fill="#046BB6" transform="translate(98,33)"/>
<path d="M0 0 C5.62639493 2.12890619 7.99203385 3.91207376 10.89453125 9.25 C13.16049191 12.83710379 16.05211217 14.68403739 20 16 C20 17.32 20 18.64 20 20 C16.44518829 19.43709055 15.06404532 18.32550747 12.8125 15.5625 C9.23104729 11.26475675 5.49788455 7.13207743 1.72265625 3.00390625 C0 1 0 1 0 0 Z " fill="#2079AF" transform="translate(108,170)"/>
<path d="M0 0 C2.9719385 1.12451727 5.33440687 2.22293791 8 4 C8 5.32 8 6.64 8 8 C8.639375 8.28875 9.27875 8.5775 9.9375 8.875 C12 10 12 10 13 12 C11.02 12 9.04 12 7 12 C6.7525 11.030625 6.505 10.06125 6.25 9.0625 C5.8375 8.051875 5.425 7.04125 5 6 C3.0480428 5.0950739 3.0480428 5.0950739 1 5 C0.34 4.67 -0.32 4.34 -1 4 C-0.67 2.68 -0.34 1.36 0 0 Z " fill="#05A3E4" transform="translate(160,20)"/>
<path d="M0 0 C1 2 2 4 3 6 C5.01669827 7.13350534 5.01669827 7.13350534 7 8 C7 8.66 7 9.32 7 10 C7.99 10 8.98 10 10 10 C12.1519437 13.22791555 12.20086443 14.28400809 12 18 C5.73244401 13.10824898 0.71084505 7.39023997 -4 1 C-2.68 1.33 -1.36 1.66 0 2 C0 1.34 0 0.68 0 0 Z " fill="#28BFE7" transform="translate(186,85)"/>
<path d="M0 0 C1.98 0.99 1.98 0.99 4 2 C4 16.85 4 31.7 4 47 C3.01 46.34 2.02 45.68 1 45 C1 44.34 1 43.68 1 43 C1.66 43 2.32 43 3 43 C3 29.8 3 16.6 3 3 C2.01 2.67 1.02 2.34 0 2 C0 1.34 0 0.68 0 0 Z " fill="#0A3069" transform="translate(47,62)"/>
<path d="M0 0 C0.8125 1.6875 0.8125 1.6875 1 4 C-1.375 6.5625 -1.375 6.5625 -4 9 C-4.33 9.99 -4.66 10.98 -5 12 C-4.34 12 -3.68 12 -3 12 C-3.33 13.32 -3.66 14.64 -4 16 C-4.598125 15.360625 -5.19625 14.72125 -5.8125 14.0625 C-7.90810337 11.79689611 -7.90810337 11.79689611 -11 11 C-11 9.35 -11 7.7 -11 6 C-10.34 5.67 -9.68 5.34 -9 5 C-9 6.32 -9 7.64 -9 9 C-8.34 9 -7.68 9 -7 9 C-6.773125 8.443125 -6.54625 7.88625 -6.3125 7.3125 C-4.64103234 4.36753316 -2.44723648 2.31843456 0 0 Z " fill="#ECF3FA" transform="translate(161,76)"/>
<path d="M0 0 C1.9375 0.8125 1.9375 0.8125 4 2 C4.33 2.99 4.66 3.98 5 5 C5.99 5.66 6.98 6.32 8 7 C8 8.32 8 9.64 8 11 C4.53734736 10.6852134 2.41414041 10.29733158 -0.4375 8.25 C-2 6 -2 6 -1.8125 3.3125 C-1 1 -1 1 0 0 Z " fill="#032887" transform="translate(38,53)"/>
<path d="M0 0 C0 5.94 0 11.88 0 18 C-1.65 16.35 -3.3 14.7 -5 13 C-4.67 12.34 -4.34 11.68 -4 11 C-3.00279033 7.31032421 -3.04909175 4.69797652 -4 1 C-1 0 -1 0 0 0 Z " fill="#10C4E6" transform="translate(197,174)"/>
<path d="M0 0 C2.41534564 1.08453755 3.9518276 2.27522324 6 4 C4.02 4.99 4.02 4.99 2 6 C1.67 4.68 1.34 3.36 1 2 C0.2265625 2.2165625 0.2265625 2.2165625 -0.5625 2.4375 C-3.68386829 3.15781576 -6.82963835 3.54709119 -10 4 C-11.33917261 4.30903983 -12.67653254 4.62942911 -14 5 C-11.16465646 -1.27826069 -6.35369106 -0.74806454 0 0 Z " fill="#144688" transform="translate(72,5)"/>
<path d="M0 0 C1.65 0 3.3 0 5 0 C5.91058531 3.07322544 6.08886184 5.80097361 6 9 C3.03 8.505 3.03 8.505 0 8 C-0.144375 7.38125 -0.28875 6.7625 -0.4375 6.125 C-0.93152225 3.96741678 -0.93152225 3.96741678 -2 2 C-1.34 2 -0.68 2 0 2 C0 1.34 0 0.68 0 0 Z " fill="#053286" transform="translate(50,184)"/>
<path d="M0 0 C4.26687808 2.13343904 5.83389766 3.93698822 8.75 7.625 C9.54921875 8.62789062 10.3484375 9.63078125 11.171875 10.6640625 C12.07679688 11.82035156 12.07679688 11.82035156 13 13 C12.01 13.495 12.01 13.495 11 14 C9.29115995 12.37660195 7.62553283 10.70680947 6 9 C6 8.34 6 7.68 6 7 C4.35 7.66 2.7 8.32 1 9 C0.67 6.03 0.34 3.06 0 0 Z " fill="#1AA7D9" transform="translate(160,97)"/>
<path d="M0 0 C2.97 0.99 5.94 1.98 9 3 C9.33 4.98 9.66 6.96 10 9 C11.32 9.33 12.64 9.66 14 10 C14.33 11.32 14.66 12.64 15 14 C15.66 14 16.32 14 17 14 C16.67 14.66 16.34 15.32 16 16 C10.12580856 11.07380487 4.70244434 6.09576118 0 0 Z " fill="#186FA3" transform="translate(103,81)"/>
<path d="M0 0 C0.33 0 0.66 0 1 0 C1 7.26 1 14.52 1 22 C-0.32 21.34 -1.64 20.68 -3 20 C-2.814375 19.071875 -2.62875 18.14375 -2.4375 17.1875 C-1.75876119 13.98656229 -1.75876119 13.98656229 -3 11 C-2.34 10.01 -1.68 9.02 -1 8 C-0.54860541 5.9507906 -0.54860541 5.9507906 -0.375 3.8125 C-0.25125 2.554375 -0.1275 1.29625 0 0 Z " fill="#2E8DBF" transform="translate(127,83)"/>
<path d="M0 0 C5.75 0.75 5.75 0.75 8 3 C8 4.32 8 5.64 8 7 C7.01 7.33 6.02 7.66 5 8 C5 7.34 5 6.68 5 6 C2.03 5.505 2.03 5.505 -1 5 C-0.67 3.35 -0.34 1.7 0 0 Z " fill="#0297DE" transform="translate(147,8)"/>
<path d="M0 0 C0.33 0 0.66 0 1 0 C1.17252864 5.08959486 0.96625771 8.2809815 -1 13 C-0.71260075 15.24240782 -0.71260075 15.24240782 0 17 C-1.32 16.34 -2.64 15.68 -4 15 C-4 12.03 -4 9.06 -4 6 C-2.68 5.67 -1.36 5.34 0 5 C0 3.35 0 1.7 0 0 Z " fill="#047FC3" transform="translate(126,83)"/>
<path d="M0 0 C2 0 2 0 3.5078125 1.3203125 C7.89672867 6.21808852 7.89672867 6.21808852 8.4375 10.3125 C8 13 8 13 7 15 C6.34 15 5.68 15 5 15 C3.95550089 11.86650268 4.06576355 11.01031744 5 8 C4.175 7.608125 3.35 7.21625 2.5 6.8125 C1.675 6.214375 0.85 5.61625 0 5 C-0.3125 2.3125 -0.3125 2.3125 0 0 Z " fill="#18BDE7" transform="translate(190,49)"/>
<path d="M0 0 C2.33333333 2.33333333 4.66666667 4.66666667 7 7 C6.625 10.125 6.625 10.125 6 13 C4.68 13.33 3.36 13.66 2 14 C2.66 12.68 3.32 11.36 4 10 C1.94388244 7.00602162 1.94388244 7.00602162 -1 5 C-0.67 3.35 -0.34 1.7 0 0 Z " fill="#102472" transform="translate(25,34)"/>
<path d="M0 0 C0.70125 0.78375 1.4025 1.5675 2.125 2.375 C7.83994583 7.59299402 13.65083333 7.26143281 21 7 C21 7.66 21 8.32 21 9 C17.49376901 10.75311549 13.82575731 10.55957023 10 10 C6.15007318 8.24825061 2.98376588 5.98376588 0 3 C0 2.01 0 1.02 0 0 Z " fill="#D7F6FD" transform="translate(122,186)"/>
<path d="M0 0 C4.875 1.75 4.875 1.75 6 4 C6.99 4.33 7.98 4.66 9 5 C9 6.32 9 7.64 9 9 C9.61875 9.0825 10.2375 9.165 10.875 9.25 C13 10 13 10 14.25 12.0625 C14.4975 12.701875 14.745 13.34125 15 14 C12 14 12 14 10.55786133 12.82250977 C10.0708374 12.28424561 9.58381348 11.74598145 9.08203125 11.19140625 C8.55029297 10.60939453 8.01855469 10.02738281 7.47070312 9.42773438 C6.92349609 8.81220703 6.37628906 8.19667969 5.8125 7.5625 C5.25369141 6.95083984 4.69488281 6.33917969 4.11914062 5.70898438 C0 1.15730884 0 1.15730884 0 0 Z " fill="#1FB0D6" transform="translate(168,70)"/>
<path d="M0 0 C2 2 2 2 2 4 C2.9543483 5.20429666 3.96255807 6.36649863 5 7.5 C8 10.77777778 8 10.77777778 8 13 C8.99 13.33 9.98 13.66 11 14 C10.34 14.66 9.68 15.32 9 16 C5.04 12.04 1.08 8.08 -3 4 C-2.34 3.67 -1.68 3.34 -1 3 C-0.67 2.01 -0.34 1.02 0 0 Z " fill="#E1F5FD" transform="translate(84,9)"/>
<path d="M0 0 C0.66 0 1.32 0 2 0 C2 0.99 2 1.98 2 3 C2.99 3.33 3.98 3.66 5 4 C5 8 5 8 3 11 C1.68 10.67 0.36 10.34 -1 10 C-0.79375 9.236875 -0.5875 8.47375 -0.375 7.6875 C0.33391203 4.78114056 0.33391203 4.78114056 -2 2 C-1.34 1.34 -0.68 0.68 0 0 Z " fill="#02A5E5" transform="translate(162,29)"/>
<path d="M0 0 C0.79664063 0.24556641 0.79664063 0.24556641 1.609375 0.49609375 C4.53876764 1.11356377 7.25822936 1.09501925 10.25 1.0625 C11.86648437 1.04896484 11.86648437 1.04896484 13.515625 1.03515625 C14.74539062 1.01775391 14.74539062 1.01775391 16 1 C16 1.99 16 2.98 16 4 C10.72 4 5.44 4 0 4 C0 2.68 0 1.36 0 0 Z " fill="#FCFAF0" transform="translate(128,194)"/>
<path d="M0 0 C2.0625 0.4375 2.0625 0.4375 4 1 C3.525625 1.598125 3.05125 2.19625 2.5625 2.8125 C-0.14794172 6.60711841 -0.24742465 10.14141283 -0.5625 14.6875 C-0.64628906 15.86699219 -0.73007813 17.04648438 -0.81640625 18.26171875 C-0.87699219 19.16535156 -0.93757812 20.06898437 -1 21 C-1.33 21 -1.66 21 -2 21 C-2.95261487 16.23692563 -3.08333357 11.8333472 -3 7 C-2.34 7 -1.68 7 -1 7 C-1.020625 6.030625 -1.04125 5.06125 -1.0625 4.0625 C-1 1 -1 1 0 0 Z " fill="#148FC4" transform="translate(149,62)"/>
<path d="M0 0 C0.99 0.66 1.98 1.32 3 2 C0.35541621 3.32229189 -1.67761301 3.09677194 -4.625 3.0625 C-5.62789062 3.05347656 -6.63078125 3.04445313 -7.6640625 3.03515625 C-8.43492187 3.02355469 -9.20578125 3.01195312 -10 3 C-10.33 4.32 -10.66 5.64 -11 7 C-11.66 7 -12.32 7 -13 7 C-13.33 7.66 -13.66 8.32 -14 9 C-13.72253508 5.67042093 -13.18903896 4.21195277 -10.9375 1.6875 C-6.89932651 -0.63230179 -4.62174501 -0.44726565 0 0 Z " fill="#2187B9" transform="translate(147,4)"/>
<path d="M0 0 C3.41943506 0.42269769 6.72174346 0.91991217 10 2 C11.625 4.625 11.625 4.625 12 7 C5.85412262 6.7589852 5.85412262 6.7589852 3.421875 4.59765625 C2.21155069 3.11953029 1.09779097 1.56352047 0 0 Z " fill="#DCF6FB" transform="translate(114,128)"/>
<path d="M0 0 C0.99 0.33 1.98 0.66 3 1 C2.39622642 6.43396226 2.39622642 6.43396226 0.6875 8.875 C-1 10 -1 10 -5 10 C-3.33333333 6.66666667 -1.66666667 3.33333333 0 0 Z " fill="#0E3C7F" transform="translate(56,127)"/>
<path d="M0 0 C0.33 0 0.66 0 1 0 C1.08133791 1.91595968 1.13934367 3.83291932 1.1875 5.75 C1.22230469 6.81734375 1.25710937 7.8846875 1.29296875 8.984375 C0.97082786 12.30027855 0.22851086 13.59016673 -2 16 C-4 14.1875 -4 14.1875 -6 12 C-6 11.01 -6 10.02 -6 9 C-4.35 8.67 -2.7 8.34 -1 8 C-0.67 5.36 -0.34 2.72 0 0 Z " fill="#042283" transform="translate(32,72)"/>
<path d="M0 0 C2.9375 0.8125 2.9375 0.8125 6 2 C6.33 2.99 6.66 3.98 7 5 C7.845625 5.45375 8.69125 5.9075 9.5625 6.375 C10.366875 6.91125 11.17125 7.4475 12 8 C12.3125 10.6875 12.3125 10.6875 12 13 C9.95880212 11.38405168 7.95927063 9.7143618 6 8 C6 7.34 6 6.68 6 6 C5.34 6 4.68 6 4 6 C2.61061923 4.03852126 1.2739589 2.03833424 0 0 Z " fill="#C7F8FD" transform="translate(186,43)"/>
<path d="M0 0 C0.66 0 1.32 0 2 0 C3.80411967 2.75924185 4.0127245 3.88972103 3.625 7.25 C3.41875 8.1575 3.2125 9.065 3 10 C1.0625 9.3125 1.0625 9.3125 -1 8 C-1.875 5.5625 -1.875 5.5625 -2 3 C-1.34 2.01 -0.68 1.02 0 0 Z " fill="#05C0F8" transform="translate(191,176)"/>
<path d="M0 0 C3.3 0.33 6.6 0.66 10 1 C10.33 1.99 10.66 2.98 11 4 C9.02 4.66 7.04 5.32 5 6 C3.31237149 4.3545622 1.6459651 2.68711423 0 1 C0 0.67 0 0.34 0 0 Z " fill="#0473B9" transform="translate(108,167)"/>
<path d="M0 0 C1.4540625 0.0309375 1.4540625 0.0309375 2.9375 0.0625 C3.2675 2.0425 3.5975 4.0225 3.9375 6.0625 C1.9575 7.0525 1.9575 7.0525 -0.0625 8.0625 C-0.495625 6.886875 -0.495625 6.886875 -0.9375 5.6875 C-1.91162254 2.96578368 -1.91162254 2.96578368 -4.0625 1.0625 C-3.0625 0.0625 -3.0625 0.0625 0 0 Z " fill="#0656A8" transform="translate(85.0625,135.9375)"/>
<path d="M0 0 C0.5775 0.165 1.155 0.33 1.75 0.5 C4.26664369 1.14462031 4.26664369 1.14462031 8 1 C8.33 1 8.66 1 9 1 C8.979375 1.7425 8.95875 2.485 8.9375 3.25 C8.99328688 5.70462279 9.3069904 7.66109261 10 10 C5.05848696 7.59983652 2.95668756 4.47726973 0 0 Z " fill="#0E2E78" transform="translate(38,95)"/>
<path d="M0 0 C1 2 1 2 1 6 C0.01 6.66 -0.98 7.32 -2 8 C-5 3.25 -5 3.25 -5 1 C-5.66 0.67 -6.32 0.34 -7 0 C-4.30234372 -1.34882814 -2.84835666 -0.80338265 0 0 Z " fill="#0968B1" transform="translate(104,73)"/>
<path d="M0 0 C5 5 10 10 15 15 C14.67 15.66 14.34 16.32 14 17 C4.92783505 9.78350515 4.92783505 9.78350515 3 4 C2.01 4 1.02 4 0 4 C0 2.68 0 1.36 0 0 Z " fill="#226897" transform="translate(92,24)"/>
<path d="M0 0 C1.62463842 -0.05395478 3.24978541 -0.09277195 4.875 -0.125 C5.77992187 -0.14820312 6.68484375 -0.17140625 7.6171875 -0.1953125 C10 0 10 0 12 2 C12 2.66 12 3.32 12 4 C7.71 3.67 3.42 3.34 -1 3 C-0.67 2.01 -0.34 1.02 0 0 Z " fill="#DAEEF8" transform="translate(62,2)"/>
<path d="M0 0 C1.32 0 2.64 0 4 0 C4 0.66 4 1.32 4 2 C4.66 2.33 5.32 2.66 6 3 C5.01 3.66 4.02 4.32 3 5 C2.34 4.67 1.68 4.34 1 4 C-4.32967208 3.65907959 -4.32967208 3.65907959 -9 6 C-9.33 5.01 -9.66 4.02 -10 3 C-9.34 3 -8.68 3 -8 3 C-8 2.34 -8 1.68 -8 1 C-5.36 1.33 -2.72 1.66 0 2 C0 1.34 0 0.68 0 0 Z " fill="#135C9D" transform="translate(83,60)"/>
<path d="M0 0 C4.25209792 4.12324647 8.13635705 8.51282966 12 13 C11.01 13.33 10.02 13.66 9 14 C7 13 7 13 5.625 10.0625 C3.96186478 6.92812978 3.25976906 6.1240583 0 5 C0 3.35 0 1.7 0 0 Z " fill="#C3F7FD" transform="translate(178,170)"/>
<path d="M0 0 C1.98 0.99 3.96 1.98 6 3 C6 4.32 6 5.64 6 7 C6.66 7.33 7.32 7.66 8 8 C7.67 8.99 7.34 9.98 7 11 C4.03 8.03 1.06 5.06 -2 2 C-1.34 1.34 -0.68 0.68 0 0 Z " fill="#17629D" transform="translate(94,151)"/>
<path d="M0 0 C3.82946843 1.45255699 5.12050295 3.42895561 7 7 C6.01 7.495 6.01 7.495 5 8 C4.34444881 10.52733235 4.34444881 10.52733235 4 13 C3.67 13 3.34 13 3 13 C2.87625 11.865625 2.7525 10.73125 2.625 9.5625 C2.41875 8.386875 2.2125 7.21125 2 6 C1.34 5.67 0.68 5.34 0 5 C0 3.35 0 1.7 0 0 Z " fill="#030464" transform="translate(2,95)"/>
<path d="M0 0 C4.33333333 4.33333333 8.66666667 8.66666667 13 13 C9.32281907 13 7.92923811 12.17815142 5 10 C3.6875 7.3125 3.6875 7.3125 3 5 C2.34 5 1.68 5 1 5 C0.67 3.35 0.34 1.7 0 0 Z " fill="#2BA2D0" transform="translate(155,10)"/>
<path d="M0 0 C4.42477876 3.31858407 4.42477876 3.31858407 5 7 C5.33 7.99 5.66 8.98 6 10 C4.35 9.67 2.7 9.34 1 9 C0.67 9.66 0.34 10.32 0 11 C0 7.37 0 3.74 0 0 Z " fill="#04045C" transform="translate(0,5)"/>
<path d="M0 0 C0.99 0.33 1.98 0.66 3 1 C2.67 3.64 2.34 6.28 2 9 C0.68 9 -0.64 9 -2 9 C-2.125 5.625 -2.125 5.625 -2 2 C-1.34 1.34 -0.68 0.68 0 0 Z " fill="#02338C" transform="translate(52,152)"/>
<path d="M0 0 C4.69564393 3.31457218 7.72469104 7.36279281 11 12 C10.01 12.495 10.01 12.495 9 13 C5.21429586 11.73809862 4.78168429 10.45144185 2.8125 7.0625 C2.28269531 6.16660156 1.75289062 5.27070312 1.20703125 4.34765625 C0 2 0 2 0 0 Z " fill="#2CB9E1" transform="translate(182,122)"/>
<path d="M0 0 C3.63559661 3.43361902 6.36113346 6.7973607 9 11 C7.68 11 6.36 11 5 11 C5 10.01 5 9.02 5 8 C2.525 7.01 2.525 7.01 0 6 C0 4.02 0 2.04 0 0 Z " fill="#1BB1E1" transform="translate(173,111)"/>
<path d="M0 0 C1.32 0.33 2.64 0.66 4 1 C4 1.66 4 2.32 4 3 C4.99 3.66 5.98 4.32 7 5 C7.1875 7.625 7.1875 7.625 7 10 C6.34 10 5.68 10 5 10 C5 9.01 5 8.02 5 7 C4.21625 6.690625 3.4325 6.38125 2.625 6.0625 C0 5 0 5 -2 4 C-1.34 2.68 -0.68 1.36 0 0 Z " fill="#016FB8" transform="translate(108,79)"/>
<path d="M0 0 C2.475 0.99 2.475 0.99 5 2 C5 1.34 5 0.68 5 0 C5.66 0 6.32 0 7 0 C7 2.64 7 5.28 7 8 C3.28631113 6.76210371 2.22645819 5.14775123 0 2 C0 1.34 0 0.68 0 0 Z " fill="#03B0F0" transform="translate(169,67)"/>
<path d="M0 0 C3.45195767 1.4258086 5.1014256 3.09746334 7.25 6.125 C7.77078125 6.84945313 8.2915625 7.57390625 8.828125 8.3203125 C9.40820312 9.15175781 9.40820312 9.15175781 10 10 C9.01 10.495 9.01 10.495 8 11 C8 10.34 8 9.68 8 9 C6.68 8.67 5.36 8.34 4 8 C3.67 6.35 3.34 4.7 3 3 C1.68 3.33 0.36 3.66 -1 4 C-1.33 3.34 -1.66 2.68 -2 2 C-1.34 2 -0.68 2 0 2 C0 1.34 0 0.68 0 0 Z " fill="#161F65" transform="translate(12,20)"/>
<path d="M0 0 C4.6875 3.61328125 4.6875 3.61328125 6 5 C6 5.99 6 6.98 6 8 C5.34 8 4.68 8 4 8 C3.67 8.66 3.34 9.32 3 10 C0.9375 7.8125 0.9375 7.8125 -1 5 C-0.75 2.1875 -0.75 2.1875 0 0 Z " fill="#0E2973" transform="translate(35,127)"/>
<path d="M0 0 C0.33 0 0.66 0 1 0 C1 1.98 1 3.96 1 6 C-1.31 6.66 -3.62 7.32 -6 8 C-6 7.01 -6 6.02 -6 5 C-5.34 5 -4.68 5 -4 5 C-4.33 4.01 -4.66 3.02 -5 2 C-3.35 2 -1.7 2 0 2 C0 1.34 0 0.68 0 0 Z " fill="#046EBA" transform="translate(112,157)"/>
<path d="M0 0 C1.32 0 2.64 0 4 0 C4.28875 0.639375 4.5775 1.27875 4.875 1.9375 C5.82823451 4.15206079 5.82823451 4.15206079 8 5 C8.40729228 7.32156597 8.74438677 9.6568787 9 12 C4.99027798 8.32442148 2.54664585 4.81033104 0 0 Z " fill="#17A1D2" transform="translate(159,144)"/>
<path d="M0 0 C1.98 0.66 3.96 1.32 6 2 C5.01 3.485 5.01 3.485 4 5 C-2.75 4.25 -2.75 4.25 -5 2 C-4.34 1.67 -3.68 1.34 -3 1 C-2.01 1.33 -1.02 1.66 0 2 C0 1.34 0 0.68 0 0 Z " fill="#DCEEFA" transform="translate(47,131)"/>
<path d="M0 0 C1.2065625 0.0309375 1.2065625 0.0309375 2.4375 0.0625 C2.56125 0.784375 2.685 1.50625 2.8125 2.25 C3.4279931 5.01971894 4.32194374 7.4595354 5.4375 10.0625 C4.30855124 9.12975891 3.18449124 8.19109878 2.0625 7.25 C1.43601562 6.72792969 0.80953125 6.20585937 0.1640625 5.66796875 C-1.5625 4.0625 -1.5625 4.0625 -3.5625 1.0625 C-2.5625 0.0625 -2.5625 0.0625 0 0 Z " fill="#E5F0FB" transform="translate(36.5625,122.9375)"/>
<path d="M0 0 C4.56048012 3.61251516 8.01665146 6.98797445 11 12 C9.35 11.67 7.7 11.34 6 11 C5.9071875 10.1028125 5.9071875 10.1028125 5.8125 9.1875 C5.16333507 6.73256694 5.16333507 6.73256694 2.4375 5.5 C1.633125 5.005 0.82875 4.51 0 4 C0 2.68 0 1.36 0 0 Z " fill="#D3FBFD" transform="translate(185,90)"/>
<path d="M0 0 C0 0.66 0 1.32 0 2 C0.99 2.33 1.98 2.66 3 3 C4.1875 6.5625 4.1875 6.5625 5 10 C4.236875 9.21625 3.47375 8.4325 2.6875 7.625 C-1.17853056 3.84887712 -3.71867258 2.70417699 -9 2 C-9 1.67 -9 1.34 -9 1 C-5.94152152 0.45627049 -3.11227195 0 0 0 Z " fill="#22A5CF" transform="translate(163,60)"/>
<path d="M0 0 C1.485 0.99 1.485 0.99 3 2 C3 2.99 3 3.98 3 5 C3.61875 5.268125 4.2375 5.53625 4.875 5.8125 C7 7 7 7 9 10 C8.67 10.99 8.34 11.98 8 13 C5.03 9.7 2.06 6.4 -1 3 C-0.67 2.01 -0.34 1.02 0 0 Z " fill="#DAF4FA" transform="translate(113,42)"/>
<path d="M0 0 C2.3125 0.125 2.3125 0.125 5 1 C6.6875 4 6.6875 4 8 7 C8.66 7.33 9.32 7.66 10 8 C9.67 8.99 9.34 9.98 9 11 C7.86874978 9.92319498 6.74525081 8.83824365 5.625 7.75 C4.99851562 7.14671875 4.37203125 6.5434375 3.7265625 5.921875 C2.02689839 4.0299412 1.01540134 2.31798691 0 0 Z " fill="#D2EFF7" transform="translate(94,25)"/>
<path d="M0 0 C2.86697492 1.28519565 4.97607712 2.57129254 7 5 C7 5.66 7 6.32 7 7 C7.99 7.33 8.98 7.66 10 8 C9.01 8.495 9.01 8.495 8 9 C5 7.9375 5 7.9375 2 6 C0.625 2.8125 0.625 2.8125 0 0 Z " fill="#1E2A6F" transform="translate(21,113)"/>
<path d="M0 0 C0.66 0 1.32 0 2 0 C1.938125 0.7425 1.87625 1.485 1.8125 2.25 C2.03362674 5.49319223 3.07188738 6.48507049 5 9 C4.67 9.99 4.34 10.98 4 12 C1.69 9.03 -0.62 6.06 -3 3 C-2.01 2.67 -1.02 2.34 0 2 C0 1.34 0 0.68 0 0 Z " fill="#20A8D8" transform="translate(171,154)"/>
<path d="M0 0 C2.475 0.495 2.475 0.495 5 1 C5.12375 1.556875 5.2475 2.11375 5.375 2.6875 C6.05976855 5.22114364 6.99133763 7.57921032 8 10 C6.84481082 9.09515208 5.70114594 8.1755794 4.5625 7.25 C3.60537109 6.48429687 3.60537109 6.48429687 2.62890625 5.703125 C0.81189446 3.80332371 0.39576803 2.56413092 0 0 Z " fill="#08155E" transform="translate(18,72)"/>
<path d="M0 0 C3.33333333 3.33333333 6.66666667 6.66666667 10 10 C9.67 10.99 9.34 11.98 9 13 C8.34 12.67 7.68 12.34 7 12 C7 11.01 7 10.02 7 9 C6.34 9 5.68 9 5 9 C2.375 6.75 2.375 6.75 0 4 C0 2.68 0 1.36 0 0 Z " fill="#29AAD8" transform="translate(168,24)"/>
<path d="M0 0 C1.32 0 2.64 0 4 0 C4 0.99 4 1.98 4 3 C2.69855198 4.04115841 1.36161311 5.03886134 0 6 C-0.66 6.99 -1.32 7.98 -2 9 C-3 7 -3 7 -2.125 3.9375 C-1 1 -1 1 0 0 Z " fill="#01B0DF" transform="translate(169,144)"/>
<path d="M0 0 C4.2742558 1.5830577 6.26531794 4.50568404 9 8 C8.67 8.66 8.34 9.32 8 10 C3.125 6.25 3.125 6.25 2 4 C1.34 5.32 0.68 6.64 0 8 C0 5.36 0 2.72 0 0 Z " fill="#2B9CC1" transform="translate(152,87)"/>
<path d="M0 0 C0.66 0 1.32 0 2 0 C3.2077558 3.62326739 2.54311128 4.64146369 1 8 C0.01 8 -0.98 8 -2 8 C-2.125 5.125 -2.125 5.125 -2 2 C-1.34 1.34 -0.68 0.68 0 0 Z " fill="#032281" transform="translate(36,72)"/>
<path d="M0 0 C0.66 0 1.32 0 2 0 C2 0.66 2 1.32 2 2 C2.928125 2.1546875 2.928125 2.1546875 3.875 2.3125 C6 3 6 3 8 6 C8.38499891 7.65549531 8.72793135 9.3222433 9 11 C5.74251349 7.83299923 2.72824638 4.63766184 0 1 C0 0.67 0 0.34 0 0 Z " fill="#20B4DB" transform="translate(176,166)"/>
<path d="M0 0 C0.99 0.33 1.98 0.66 3 1 C3.33 3.64 3.66 6.28 4 9 C3.01 8.34 2.02 7.68 1 7 C1 6.34 1 5.68 1 5 C0.01 4.67 -0.98 4.34 -2 4 C-1.34 2.68 -0.68 1.36 0 0 Z " fill="#0660AC" transform="translate(93,64)"/>
<path d="M0 0 C-2 1 -4 2 -6 3 C-6.33 3.66 -6.66 4.32 -7 5 C-8.30915279 6.03145371 -9.64082143 7.03542166 -11 8 C-10.64987213 5.40905378 -10.26229035 3.4225789 -8.875 1.1875 C-5.99131838 -0.63883169 -3.32254207 -0.18806842 0 0 Z " fill="#DDF5FD" transform="translate(84,63)"/>
<path d="M0 0 C2.3183128 3.47746919 2.16962884 4.92890775 2 9 C2 9.99 2 10.98 2 12 C2 13.66666667 2 15.33333333 2 17 C1.34 17.33 0.68 17.66 0 18 C0 12.06 0 6.12 0 0 Z " fill="#06358F" transform="translate(57,47)"/>
<path d="M0 0 C1.6266848 0.28211877 3.25132896 0.57602375 4.875 0.875 C5.77992188 1.03742187 6.68484375 1.19984375 7.6171875 1.3671875 C10 2 10 2 12 4 C11.625 6.125 11.625 6.125 11 8 C10.29875 7.401875 9.5975 6.80375 8.875 6.1875 C6.02969023 4.02259039 3.23367233 2.50403364 0 1 C0 0.67 0 0.34 0 0 Z " fill="#DCFAFD" transform="translate(144,2)"/>
<path d="M0 0 C1.98 0 3.96 0 6 0 C6 0.99 6 1.98 6 3 C4 4.6875 4 4.6875 2 6 C0 1.125 0 1.125 0 0 Z " fill="#103089" transform="translate(39,176)"/>
<path d="M0 0 C2.3125 0.1875 2.3125 0.1875 5 1 C6.875 3.375 6.875 3.375 8 6 C7.67 6.99 7.34 7.98 7 9 C5.83037314 7.69013727 4.66437056 6.3770374 3.5 5.0625 C2.8503125 4.33160156 2.200625 3.60070312 1.53125 2.84765625 C0 1 0 1 0 0 Z " fill="#0C1556" transform="translate(8,143)"/>
<path d="M0 0 C2.97 0.495 2.97 0.495 6 1 C5.34 3.97 4.68 6.94 4 10 C3.67 10 3.34 10 3 10 C2.67 8.35 2.34 6.7 2 5 C1.01 5.495 1.01 5.495 0 6 C0 4.02 0 2.04 0 0 Z " fill="#0676BB" transform="translate(112,61)"/>
<path d="M0 0 C1.14926266 0.95421808 2.29430541 1.91352045 3.4375 2.875 C4.07558594 3.40867188 4.71367188 3.94234375 5.37109375 4.4921875 C7 6 7 6 8 8 C5.625 8.125 5.625 8.125 3 8 C0.4345406 5.4345406 0.45953913 3.52313332 0 0 Z " fill="#2574AA" transform="translate(107,40)"/>
<path d="M0 0 C3.25543229 0.34879632 4.01873107 1.02133261 6.25 3.5625 C6.8275 4.366875 7.405 5.17125 8 6 C6.35 6 4.7 6 3 6 C2.67 5.01 2.34 4.02 2 3 C1.34 3 0.68 3 0 3 C0 2.01 0 1.02 0 0 Z " fill="#1F5FA0" transform="translate(84,18)"/>
<path d="M0 0 C2.23281732 2.23281732 3.91143831 4.14341164 5.6875 6.6875 C6.12449219 7.31011719 6.56148437 7.93273437 7.01171875 8.57421875 C7.33785156 9.04472656 7.66398438 9.51523438 8 10 C5.03 9.505 5.03 9.505 2 9 C1.34 6.03 0.68 3.06 0 0 Z " fill="#BFF2FC" transform="translate(190,184)"/>
<path d="M0 0 C3.59634744 3.49359465 6.83451967 7.11098131 10 11 C9.01 11.33 8.02 11.66 7 12 C6.67 11.01 6.34 10.02 6 9 C5.01 8.67 4.02 8.34 3 8 C0 2.77777778 0 2.77777778 0 0 Z " fill="#C2F1FB" transform="translate(152,137)"/>
<path d="M0 0 C0.33 0 0.66 0 1 0 C0.67 2.97 0.34 5.94 0 9 C-2.64 9.33 -5.28 9.66 -8 10 C-6 8 -6 8 -3 7 C-1.28432339 3.49705129 -1.28432339 3.49705129 0 0 Z " fill="#2885AF" transform="translate(132,126)"/>
<path d="M0 0 C1.9375 0.75 1.9375 0.75 4 2 C4.75 4.125 4.75 4.125 5 6 C2.69 6 0.38 6 -2 6 C-2 5.34 -2 4.68 -2 4 C-1.34 3.67 -0.68 3.34 0 3 C0 2.01 0 1.02 0 0 Z " fill="#0866A8" transform="translate(106,122)"/>
<path d="M0 0 C3.73639216 1.24546405 4.18756513 2.63404953 6 6 C4.68 6 3.36 6 2 6 C2 8.64 2 11.28 2 14 C1.67 14 1.34 14 1 14 C1.01160156 13.24074219 1.02320312 12.48148438 1.03515625 11.69921875 C1.04417969 10.70535156 1.05320312 9.71148437 1.0625 8.6875 C1.07990234 7.20830078 1.07990234 7.20830078 1.09765625 5.69921875 C1.12329862 2.90036151 1.12329862 2.90036151 0 0 Z " fill="#1B5190" transform="translate(77,90)"/>
<path d="M0 0 C0.99 0.495 0.99 0.495 2 1 C2 1.66 2 2.32 2 3 C2.639375 3.28875 3.27875 3.5775 3.9375 3.875 C6 5 6 5 7 7 C5.02 7 3.04 7 1 7 C0.67 4.69 0.34 2.38 0 0 Z " fill="#01ACEE" transform="translate(166,25)"/>
<path d="M0 0 C0.99 0.33 1.98 0.66 3 1 C1.07423885 3.43929746 -0.80090595 5.80090595 -3 8 C-3.66 7.67 -4.32 7.34 -5 7 C-3.75023244 3.34683329 -3.32901247 2.21934164 0 0 Z " fill="#E9F3FC" transform="translate(59,4)"/>
<path d="M0 0 C1.32 1.32 2.64 2.64 4 4 C3.34 5.32 2.68 6.64 2 8 C0.68 8 -0.64 8 -2 8 C-1.67 6.68 -1.34 5.36 -1 4 C-0.34 4 0.32 4 1 4 C0.67 2.68 0.34 1.36 0 0 Z " fill="#E0F0F1" transform="translate(118,96)"/>
<path d="M0 0 C0.66 1.98 1.32 3.96 2 6 C1.01 6 0.02 6 -1 6 C-3.1875 3.5 -3.1875 3.5 -5 1 C-2 0 -2 0 0 0 Z " fill="#0A0B57" transform="translate(7,56)"/>
<path d="M0 0 C-0.33 0.99 -0.66 1.98 -1 3 C-3.31 3 -5.62 3 -8 3 C-7.67 2.01 -7.34 1.02 -7 0 C-3.86650268 -1.04449911 -3.01031744 -0.93423645 0 0 Z " fill="#0B9AE4" transform="translate(160,55)"/>
<path d="M0 0 C0.33 0.66 0.66 1.32 1 2 C-0.5625 4.4375 -0.5625 4.4375 -3 7 C-6.75 7.8125 -6.75 7.8125 -10 8 C-8.68 7.67 -7.36 7.34 -6 7 C-6 6.34 -6 5.68 -6 5 C-5.01 5 -4.02 5 -3 5 C-3 4.01 -3 3.02 -3 2 C-2.01 1.34 -1.02 0.68 0 0 Z " fill="#278DBF" transform="translate(146,186)"/>
<path d="M0 0 C3.02015057 1.00671686 4.09316578 1.548356 6 4 C6 5.32 6 6.64 6 8 C4 8 4 8 1.375 5.5 C0.59125 4.675 -0.1925 3.85 -1 3 C-0.67 2.01 -0.34 1.02 0 0 Z " fill="#09B4F5" transform="translate(179,160)"/>
<path d="M0 0 C0.99 0 1.98 0 3 0 C2.67 1.65 2.34 3.3 2 5 C0.68 5.33 -0.64 5.66 -2 6 C-1.125 1.125 -1.125 1.125 0 0 Z " fill="#01ABF4" transform="translate(170,148)"/>
<path d="M0 0 C2 3 2 3 2 6 C2.99 6 3.98 6 5 6 C4.67 7.32 4.34 8.64 4 10 C1.4375 7.8125 1.4375 7.8125 -1 5 C-0.8125 2.1875 -0.8125 2.1875 0 0 Z " fill="#0D0D57" transform="translate(2,132)"/>
<path d="M0 0 C1.32 0 2.64 0 4 0 C3.47731534 2.76276177 2.89130413 5.3260876 2 8 C1.34 8 0.68 8 0 8 C0 5.36 0 2.72 0 0 Z " fill="#045CAC" transform="translate(91,128)"/>
<path d="M0 0 C0.33 1.32 0.66 2.64 1 4 C2.98 4.495 2.98 4.495 5 5 C5.33 6.32 5.66 7.64 6 9 C6.66 9 7.32 9 8 9 C7.67 9.66 7.34 10.32 7 11 C0.13785558 5.9059081 0.13785558 5.9059081 -0.4375 2.125 C-0.2209375 1.073125 -0.2209375 1.073125 0 0 Z " fill="#2777AC" transform="translate(112,86)"/>
<path d="M0 0 C0 3.62453269 -0.92469613 5.07920195 -3 8 C-3.99 8.33 -4.98 8.66 -6 9 C-6 5 -6 5 -4.6875 3.515625 C-3.125 2.34375 -1.5625 1.171875 0 0 Z " fill="#D6EAF6" transform="translate(70,189)"/>
<path d="M0 0 C1.98 0.99 3.96 1.98 6 3 C6 4.32 6 5.64 6 7 C4.125 6.6875 4.125 6.6875 2 6 C0 3 0 3 0 0 Z " fill="#107EB4" transform="translate(122,183)"/>
<path d="M0 0 C0.33 0 0.66 0 1 0 C1 3.63 1 7.26 1 11 C-0.98 11.99 -0.98 11.99 -3 13 C-2.01 8.71 -1.02 4.42 0 0 Z " fill="#D4F6FC" transform="translate(149,176)"/>
<path d="M0 0 C1.98 1.65 3.96 3.3 6 5 C2.25 8 2.25 8 0 8 C0.2784375 7.13375 0.2784375 7.13375 0.5625 6.25 C1.04023546 3.79307475 0.75729364 2.35602466 0 0 Z " fill="#E2F9FC" transform="translate(176,80)"/>
<path d="M0 0 C3.99996286 1.33332095 4.83782337 3.4957827 7 7 C4.61435923 6.42415568 2.33317216 5.77772405 0 5 C0 3.35 0 1.7 0 0 Z " fill="#CBE9F6" transform="translate(85,64)"/>
<path d="M0 0 C2.93200474 2.85276137 5.64315404 5.65079784 8 9 C7.01 9.33 6.02 9.66 5 10 C4.67 9.01 4.34 8.02 4 7 C3.01 6.34 2.02 5.68 1 5 C0.3125 2.375 0.3125 2.375 0 0 Z " fill="#1E3C78" transform="translate(41,53)"/>
<path d="M0 0 C1.65 0 3.3 0 5 0 C5.66 1.32 6.32 2.64 7 4 C6.34 4 5.68 4 5 4 C4.34 4.66 3.68 5.32 3 6 C0 2.25 0 2.25 0 0 Z " fill="#1071B4" transform="translate(111,48)"/>
<path d="M0 0 C0.144375 0.598125 0.28875 1.19625 0.4375 1.8125 C0.8872439 3.56150404 1.42892341 5.28677023 2 7 C0.68 7.33 -0.64 7.66 -2 8 C-2.66 6.02 -3.32 4.04 -4 2 C-2.68 1.34 -1.36 0.68 0 0 Z " fill="#01398C" transform="translate(62,8)"/>
<path d="M0 0 C1.0625 1.8125 1.0625 1.8125 2 4 C1.67 4.99 1.34 5.98 1 7 C0.01 7.33 -0.98 7.66 -2 8 C-2.33 7.01 -2.66 6.02 -3 5 C-1.5625 2.3125 -1.5625 2.3125 0 0 Z " fill="#037DCC" transform="translate(127,178)"/>
<path d="M0 0 C2.64752004 2.57784846 4.94432065 4.91648098 7 8 C5.35 7.67 3.7 7.34 2 7 C2 6.34 2 5.68 2 5 C1.34 5 0.68 5 0 5 C0 3.35 0 1.7 0 0 Z " fill="#D5ECF8" transform="translate(84,143)"/>
<path d="M0 0 C0.268125 0.61875 0.53625 1.2375 0.8125 1.875 C1.95556848 4.2995233 1.95556848 4.2995233 5 6 C4.67 6.99 4.34 7.98 4 9 C1.69 6.69 -0.62 4.38 -3 2 C-2.01 1.34 -1.02 0.68 0 0 Z " fill="#D5F9FE" transform="translate(175,27)"/>
<path d="M0 0 C2.72869407 0.03287583 5.2966618 0.56397771 8 1 C8 1.66 8 2.32 8 3 C4.7 2.67 1.4 2.34 -2 2 C-1.34 1.34 -0.68 0.68 0 0 Z " fill="#224B8D" transform="translate(56,192)"/>
<path d="M0 0 C1.32 0 2.64 0 4 0 C3.67 1.65 3.34 3.3 3 5 C2.01 5 1.02 5 0 5 C0.33 4.34 0.66 3.68 1 3 C0.34 2.67 -0.32 2.34 -1 2 C-0.67 1.34 -0.34 0.68 0 0 Z " fill="#02338C" transform="translate(50,162)"/>
<path d="M0 0 C1.65 0.33 3.3 0.66 5 1 C4.67 2.32 4.34 3.64 4 5 C3.01 5 2.02 5 1 5 C0.34 4.01 -0.32 3.02 -1 2 C-0.67 1.34 -0.34 0.68 0 0 Z " fill="#0460B2" transform="translate(91,144)"/>
<path d="M0 0 C0.33 0 0.66 0 1 0 C1.29162929 4.95769796 1.12940055 8.02806853 -2 12 C-2.66 12 -3.32 12 -4 12 C-3.71125 11.319375 -3.4225 10.63875 -3.125 9.9375 C-1.87402645 6.67106907 -0.92552045 3.37153877 0 0 Z " fill="#DBFAFD" transform="translate(131,122)"/>
<path d="M0 0 C2.31 0.33 4.62 0.66 7 1 C6.01 1.33 5.02 1.66 4 2 C4 2.66 4 3.32 4 4 C2.02 4 0.04 4 -2 4 C-1.34 3.67 -0.68 3.34 0 3 C0 2.01 0 1.02 0 0 Z " fill="#0C4C8E" transform="translate(79,58)"/>
<path d="M0 0 C0.99 0 1.98 0 3 0 C3.125 5.75 3.125 5.75 2 8 C1.34 8 0.68 8 0 8 C-1.09658936 4.71023192 -0.79953138 3.28696233 0 0 Z " fill="#05C9F2" transform="translate(195,56)"/>
<path d="M0 0 C2.46800047 1.15173355 4.04783565 2.04783565 6 4 C5.625 6.125 5.625 6.125 5 8 C0 2.25 0 2.25 0 0 Z " fill="#D8E5F5" transform="translate(29,37)"/>
<path d="M0 0 C0.99 0.99 1.98 1.98 3 3 C2.67 3.66 2.34 4.32 2 5 C1.34 5 0.68 5 0 5 C-0.33 5.66 -0.66 6.32 -1 7 C-1.625 4.625 -1.625 4.625 -2 2 C-1.34 1.34 -0.68 0.68 0 0 Z " fill="#030A5A" transform="translate(10,17)"/>
<path d="M0 0 C2.96175123 0.61277612 4.38058783 1.25372522 7 3 C6.67 4.32 6.34 5.64 6 7 C1.125 2.25 1.125 2.25 0 0 Z " fill="#E3E5F5" transform="translate(7,12)"/>
<path d="M0 0 C1.9375 0.375 1.9375 0.375 4 1 C4.33 1.66 4.66 2.32 5 3 C4.67 3.66 4.34 4.32 4 5 C4.66 5 5.32 5 6 5 C6 5.66 6 6.32 6 7 C3.525 6.01 3.525 6.01 1 5 C1 4.01 1 3.02 1 2 C0.67 1.34 0.34 0.68 0 0 Z " fill="#1B4087" transform="translate(48,186)"/>
<path d="M0 0 C0.99 0.33 1.98 0.66 3 1 C2.67 2.98 2.34 4.96 2 7 C0.35 5.35 -1.3 3.7 -3 2 C-2.01 1.34 -1.02 0.68 0 0 Z " fill="#14BDE8" transform="translate(188,176)"/>
<path d="M0 0 C0.33 0.66 0.66 1.32 1 2 C1.66 2 2.32 2 3 2 C2.34 3.65 1.68 5.3 1 7 C-0.5 5.6875 -0.5 5.6875 -2 4 C-2 3.01 -2 2.02 -2 1 C-1.34 0.67 -0.68 0.34 0 0 Z " fill="#0879C3" transform="translate(119,174)"/>
<path d="M0 0 C0.268125 0.639375 0.53625 1.27875 0.8125 1.9375 C1.88667752 4.33131686 1.88667752 4.33131686 5 5 C2.69 5.33 0.38 5.66 -2 6 C-1.34 4.02 -0.68 2.04 0 0 Z " fill="#01C1FC" transform="translate(186,130)"/>
<path d="M0 0 C2.375 0.3125 2.375 0.3125 5 1 C5.66 1.99 6.32 2.98 7 4 C6.34 4 5.68 4 5 4 C4.67 4.66 4.34 5.32 4 6 C2.68 4.02 1.36 2.04 0 0 Z " fill="#102376" transform="translate(28,123)"/>
<path d="M0 0 C1.98 1.65 3.96 3.3 6 5 C5.34 5.66 4.68 6.32 4 7 C3.01 6.67 2.02 6.34 1 6 C0.67 4.02 0.34 2.04 0 0 Z " fill="#DAE7F9" transform="translate(43,184)"/>
<path d="M0 0 C0.66 0 1.32 0 2 0 C2 0.66 2 1.32 2 2 C2.639375 2.2475 3.27875 2.495 3.9375 2.75 C6 4 6 4 6.62890625 6.078125 C6.75136719 6.71234375 6.87382813 7.3465625 7 8 C5.8274869 7.04882866 4.66212985 6.08882991 3.5 5.125 C2.8503125 4.59132812 2.200625 4.05765625 1.53125 3.5078125 C1.0259375 3.01023438 0.520625 2.51265625 0 2 C0 1.34 0 0.68 0 0 Z " fill="#1A68A0" transform="translate(102,162)"/>
<path d="M0 0 C1.98 1.65 3.96 3.3 6 5 C5.67 5.99 5.34 6.98 5 8 C3.5 6.625 3.5 6.625 2 5 C2 4.34 2 3.68 2 3 C1.34 3 0.68 3 0 3 C0 2.01 0 1.02 0 0 Z " fill="#C6E6F6" transform="translate(96,157)"/>
<path d="M0 0 C0 1.32 0 2.64 0 4 C-1.32 3.67 -2.64 3.34 -4 3 C-4 3.66 -4 4.32 -4 5 C-4.99 5 -5.98 5 -7 5 C-7 4.34 -7 3.68 -7 3 C-2.61538462 0 -2.61538462 0 0 0 Z " fill="#05AAE6" transform="translate(175,151)"/>
<path d="M0 0 C0.99 0.33 1.98 0.66 3 1 C3 2.65 3 4.3 3 6 C2.01 6 1.02 6 0 6 C0 4.02 0 2.04 0 0 Z " fill="#09A7E8" transform="translate(164,143)"/>
<path d="M0 0 C6.57142857 5.14285714 6.57142857 5.14285714 8 9 C4.20620942 7.50958227 2.31656242 5.30937488 0 2 C0 1.34 0 0.68 0 0 Z " fill="#1B66A2" transform="translate(98,112)"/>
<path d="M0 0 C1.32 0.33 2.64 0.66 4 1 C4 1.66 4 2.32 4 3 C4.66 3 5.32 3 6 3 C6.33 4.65 6.66 6.3 7 8 C4.35247996 5.42215154 2.05567935 3.08351902 0 0 Z " fill="#D5FCFE" transform="translate(169,105)"/>
<path d="M0 0 C1.9375 0.6875 1.9375 0.6875 4 2 C4.75 4.625 4.75 4.625 5 7 C2.5 5.1875 2.5 5.1875 0 3 C0 2.01 0 1.02 0 0 Z " fill="#1E2D72" transform="translate(26,81)"/>
<path d="M0 0 C3.82946843 1.45255699 5.12050295 3.42895561 7 7 C6.34 7 5.68 7 5 7 C5 6.34 5 5.68 5 5 C3.68 4.67 2.36 4.34 1 4 C0.67 2.68 0.34 1.36 0 0 Z " fill="#CBF7FD" transform="translate(160,63)"/>
<path d="M0 0 C1.9375 0.75 1.9375 0.75 4 2 C4.75 4.125 4.75 4.125 5 6 C3.02 5.34 1.04 4.68 -1 4 C-0.67 2.68 -0.34 1.36 0 0 Z " fill="#F6FBF4" transform="translate(187,39)"/>
<path d="M0 0 C5.75 1.625 5.75 1.625 8 5 C6.68 5.33 5.36 5.66 4 6 C3.67 4.68 3.34 3.36 3 2 C2.01 2 1.02 2 0 2 C0 1.34 0 0.68 0 0 Z " fill="#1F5289" transform="translate(70,5)"/>
<path d="M0 0 C2 1 2 1 3.125 4.0625 C3.41375 5.031875 3.7025 6.00125 4 7 C3.01 7.33 2.02 7.66 1 8 C0.34 7.67 -0.32 7.34 -1 7 C-0.67 4.69 -0.34 2.38 0 0 Z " fill="#041882" transform="translate(25,120)"/>
<path d="M0 0 C1.17539996 0.92652701 2.34010577 1.86663387 3.5 2.8125 C4.1496875 3.33457031 4.799375 3.85664062 5.46875 4.39453125 C7 6 7 6 7 9 C3.99234114 6.15063897 1.72154788 3.76488042 0 0 Z " fill="#CBF7FD" transform="translate(167,70)"/>
<path d="M0 0 C2.64 0.33 5.28 0.66 8 1 C8 1.33 8 1.66 8 2 C6.88625 2.309375 5.7725 2.61875 4.625 2.9375 C1.2054845 3.82326483 1.2054845 3.82326483 -1 5 C-1.33 4.01 -1.66 3.02 -2 2 C-1.34 2 -0.68 2 0 2 C0 1.34 0 0.68 0 0 Z " fill="#3466A3" transform="translate(75,61)"/>
<path d="M0 0 C1.65 0 3.3 0 5 0 C5.33 1.32 5.66 2.64 6 4 C4.35 3.67 2.7 3.34 1 3 C0.67 2.01 0.34 1.02 0 0 Z " fill="#0269AC" transform="translate(103,44)"/>
<path d="M0 0 C4.29425875 1.07356469 4.74740471 1.5084773 7 5 C6.67 5.66 6.34 6.32 6 7 C4.02 4.69 2.04 2.38 0 0 Z " fill="#D8FCFD" transform="translate(161,16)"/>
<path d="M0 0 C2.97 0.495 2.97 0.495 6 1 C6.33 2.65 6.66 4.3 7 6 C5.83054208 5.19152271 4.66449539 4.37810888 3.5 3.5625 C2.8503125 3.11003906 2.200625 2.65757813 1.53125 2.19140625 C1.0259375 1.79824219 0.520625 1.40507813 0 1 C0 0.67 0 0.34 0 0 Z " fill="#D6EBF9" transform="translate(74,6)"/>
</svg>
